<?xml version="1.0" encoding="UTF-8" standalone="no"?>
<!DOCTYPE svg PUBLIC "-//W3C//DTD SVG 1.1//EN"
 "http://www.w3.org/Graphics/SVG/1.1/DTD/svg11.dtd">
<!-- Generated by graphviz version 14.1.1 (20251213.1925)
 -->
<!-- Title: dependency&#45;cruiser output Pages: 1 -->
<svg width="1232pt" height="895pt"
 viewBox="0.00 0.00 1232.00 895.00" xmlns="http://www.w3.org/2000/svg" xmlns:xlink="http://www.w3.org/1999/xlink">
<g id="graph0" class="graph" transform="scale(1 1) rotate(0) translate(4 891.31)">
<title>dependency&#45;cruiser output</title>
<polygon fill="white" stroke="none" points="-4,4 -4,-891.31 1227.5,-891.31 1227.5,4 -4,4"/>
<g id="clust1" class="cluster">
<title>cluster_node_modules</title>
<path fill="#ffffff" stroke="black" stroke-width="2" d="M754,-214.31C754,-214.31 809,-214.31 809,-214.31 815,-214.31 821,-220.31 821,-226.31 821,-226.31 821,-255.31 821,-255.31 821,-261.31 815,-267.31 809,-267.31 809,-267.31 754,-267.31 754,-267.31 748,-267.31 742,-261.31 742,-255.31 742,-255.31 742,-226.31 742,-226.31 742,-220.31 748,-214.31 754,-214.31"/>
<text xml:space="preserve" text-anchor="middle" x="781.5" y="-254.76" font-family="Helvetica,sans-Serif" font-weight="bold" font-size="9.00">node_modules</text>
</g>
<g id="clust2" class="cluster">
<title>cluster_packages</title>
<path fill="#ffffff" stroke="black" stroke-width="2" d="M20,-317.31C20,-317.31 1203.5,-317.31 1203.5,-317.31 1209.5,-317.31 1215.5,-323.31 1215.5,-329.31 1215.5,-329.31 1215.5,-867.31 1215.5,-867.31 1215.5,-873.31 1209.5,-879.31 1203.5,-879.31 1203.5,-879.31 20,-879.31 20,-879.31 14,-879.31 8,-873.31 8,-867.31 8,-867.31 8,-329.31 8,-329.31 8,-323.31 14,-317.31 20,-317.31"/>
<text xml:space="preserve" text-anchor="middle" x="611.75" y="-866.76" font-family="Helvetica,sans-Serif" font-weight="bold" font-size="9.00">packages</text>
</g>
<g id="clust3" class="cluster">
<title>cluster_packages/contracts</title>
<path fill="#ffffff" stroke="black" stroke-width="2" d="M742,-706.31C742,-706.31 1195.5,-706.31 1195.5,-706.31 1201.5,-706.31 1207.5,-712.31 1207.5,-718.31 1207.5,-718.31 1207.5,-831.31 1207.5,-831.31 1207.5,-837.31 1201.5,-843.31 1195.5,-843.31 1195.5,-843.31 742,-843.31 742,-843.31 736,-843.31 730,-837.31 730,-831.31 730,-831.31 730,-718.31 730,-718.31 730,-712.31 736,-706.31 742,-706.31"/>
<text xml:space="preserve" text-anchor="middle" x="968.75" y="-830.76" font-family="Helvetica,sans-Serif" font-weight="bold" font-size="9.00">contracts</text>
</g>
<g id="clust4" class="cluster">
<title>cluster_packages/contracts/src</title>
<path fill="#ffffff" stroke="black" stroke-width="2" d="M750,-714.31C750,-714.31 1187.5,-714.31 1187.5,-714.31 1193.5,-714.31 1199.5,-720.31 1199.5,-726.31 1199.5,-726.31 1199.5,-804.31 1199.5,-804.31 1199.5,-810.31 1193.5,-816.31 1187.5,-816.31 1187.5,-816.31 750,-816.31 750,-816.31 744,-816.31 738,-810.31 738,-804.31 738,-804.31 738,-726.31 738,-726.31 738,-720.31 744,-714.31 750,-714.31"/>
<text xml:space="preserve" text-anchor="middle" x="968.75" y="-803.76" font-family="Helvetica,sans-Serif" font-weight="bold" font-size="9.00">src</text>
</g>
<g id="clust5" class="cluster">
<title>cluster_packages/contracts/src/ethics&#45;core</title>
<path fill="#ffffff" stroke="black" stroke-width="2" d="M1066.5,-736.31C1066.5,-736.31 1179.5,-736.31 1179.5,-736.31 1185.5,-736.31 1191.5,-742.31 1191.5,-748.31 1191.5,-748.31 1191.5,-777.31 1191.5,-777.31 1191.5,-783.31 1185.5,-789.31 1179.5,-789.31 1179.5,-789.31 1066.5,-789.31 1066.5,-789.31 1060.5,-789.31 1054.5,-783.31 1054.5,-777.31 1054.5,-777.31 1054.5,-748.31 1054.5,-748.31 1054.5,-742.31 1060.5,-736.31 1066.5,-736.31"/>
<text xml:space="preserve" text-anchor="middle" x="1123" y="-776.76" font-family="Helvetica,sans-Serif" font-weight="bold" font-size="9.00">ethics&#45;core</text>
</g>
<g id="clust6" class="cluster">
<title>cluster_packages/contracts/src/web</title>
<path fill="#ffffff" stroke="black" stroke-width="2" d="M758,-722.31C758,-722.31 1034.5,-722.31 1034.5,-722.31 1040.5,-722.31 1046.5,-728.31 1046.5,-734.31 1046.5,-734.31 1046.5,-777.31 1046.5,-777.31 1046.5,-783.31 1040.5,-789.31 1034.5,-789.31 1034.5,-789.31 758,-789.31 758,-789.31 752,-789.31 746,-783.31 746,-777.31 746,-777.31 746,-734.31 746,-734.31 746,-728.31 752,-722.31 758,-722.31"/>
<text xml:space="preserve" text-anchor="middle" x="896.25" y="-776.76" font-family="Helvetica,sans-Serif" font-weight="bold" font-size="9.00">web</text>
</g>
<g id="clust7" class="cluster">
<title>cluster_packages/web</title>
<path fill="#ffffff" stroke="black" stroke-width="2" d="M28,-325.31C28,-325.31 715,-325.31 715,-325.31 721,-325.31 727,-331.31 727,-337.31 727,-337.31 727,-840.31 727,-840.31 727,-846.31 721,-852.31 715,-852.31 715,-852.31 28,-852.31 28,-852.31 22,-852.31 16,-846.31 16,-840.31 16,-840.31 16,-337.31 16,-337.31 16,-331.31 22,-325.31 28,-325.31"/>
<text xml:space="preserve" text-anchor="middle" x="371.5" y="-839.76" font-family="Helvetica,sans-Serif" font-weight="bold" font-size="9.00">web</text>
</g>
<g id="clust8" class="cluster">
<title>cluster_packages/web/src</title>
<path fill="#ffffff" stroke="black" stroke-width="2" d="M36,-333.31C36,-333.31 707,-333.31 707,-333.31 713,-333.31 719,-339.31 719,-345.31 719,-345.31 719,-813.31 719,-813.31 719,-819.31 713,-825.31 707,-825.31 707,-825.31 36,-825.31 36,-825.31 30,-825.31 24,-819.31 24,-813.31 24,-813.31 24,-345.31 24,-345.31 24,-339.31 30,-333.31 36,-333.31"/>
<text xml:space="preserve" text-anchor="middle" x="371.5" y="-812.76" font-family="Helvetica,sans-Serif" font-weight="bold" font-size="9.00">src</text>
</g>
<g id="clust9" class="cluster">
<title>cluster_packages/web/src/components</title>
<path fill="#ffffff" stroke="black" stroke-width="2" d="M299.25,-351.31C299.25,-351.31 621,-351.31 621,-351.31 627,-351.31 633,-357.31 633,-363.31 633,-363.31 633,-609.31 633,-609.31 633,-615.31 627,-621.31 621,-621.31 621,-621.31 299.25,-621.31 299.25,-621.31 293.25,-621.31 287.25,-615.31 287.25,-609.31 287.25,-609.31 287.25,-363.31 287.25,-363.31 287.25,-357.31 293.25,-351.31 299.25,-351.31"/>
<text xml:space="preserve" text-anchor="middle" x="460.12" y="-608.76" font-family="Helvetica,sans-Serif" font-weight="bold" font-size="9.00">components</text>
</g>
<g id="clust10" class="cluster">
<title>cluster_packages/web/src/data</title>
<path fill="#ffffff" stroke="black" stroke-width="2" d="M524.5,-629.31C524.5,-629.31 621,-629.31 621,-629.31 627,-629.31 633,-635.31 633,-641.31 633,-641.31 633,-670.31 633,-670.31 633,-676.31 627,-682.31 621,-682.31 621,-682.31 524.5,-682.31 524.5,-682.31 518.5,-682.31 512.5,-676.31 512.5,-670.31 512.5,-670.31 512.5,-641.31 512.5,-641.31 512.5,-635.31 518.5,-629.31 524.5,-629.31"/>
<text xml:space="preserve" text-anchor="middle" x="572.75" y="-669.76" font-family="Helvetica,sans-Serif" font-weight="bold" font-size="9.00">data</text>
</g>
<g id="clust11" class="cluster">
<title>cluster_packages/web/src/pages</title>
<path fill="#ffffff" stroke="black" stroke-width="2" d="M187.25,-467.31C187.25,-467.31 267.25,-467.31 267.25,-467.31 273.25,-467.31 279.25,-473.31 279.25,-479.31 279.25,-479.31 279.25,-632.31 279.25,-632.31 279.25,-638.31 273.25,-644.31 267.25,-644.31 267.25,-644.31 187.25,-644.31 187.25,-644.31 181.25,-644.31 175.25,-638.31 175.25,-632.31 175.25,-632.31 175.25,-479.31 175.25,-479.31 175.25,-473.31 181.25,-467.31 187.25,-467.31"/>
<text xml:space="preserve" text-anchor="middle" x="227.25" y="-631.76" font-family="Helvetica,sans-Serif" font-weight="bold" font-size="9.00">pages</text>
</g>
<g id="clust12" class="cluster">
<title>cluster_packages/web/src/styles</title>
<path fill="#ffffff" stroke="black" stroke-width="2" d="M106,-461.31C106,-461.31 155.25,-461.31 155.25,-461.31 161.25,-461.31 167.25,-467.31 167.25,-473.31 167.25,-473.31 167.25,-502.31 167.25,-502.31 167.25,-508.31 161.25,-514.31 155.25,-514.31 155.25,-514.31 106,-514.31 106,-514.31 100,-514.31 94,-508.31 94,-502.31 94,-502.31 94,-473.31 94,-473.31 94,-467.31 100,-461.31 106,-461.31"/>
<text xml:space="preserve" text-anchor="middle" x="130.62" y="-501.76" font-family="Helvetica,sans-Serif" font-weight="bold" font-size="9.00">styles</text>
</g>
<g id="clust13" class="cluster">
<title>cluster_packages/web/src/types</title>
<path fill="#ffffff" stroke="black" stroke-width="2" d="M653,-653.31C653,-653.31 699,-653.31 699,-653.31 705,-653.31 711,-659.31 711,-665.31 711,-665.31 711,-694.31 711,-694.31 711,-700.31 705,-706.31 699,-706.31 699,-706.31 653,-706.31 653,-706.31 647,-706.31 641,-700.31 641,-694.31 641,-694.31 641,-665.31 641,-665.31 641,-659.31 647,-653.31 653,-653.31"/>
<text xml:space="preserve" text-anchor="middle" x="676" y="-693.76" font-family="Helvetica,sans-Serif" font-weight="bold" font-size="9.00">types</text>
</g>
<g id="clust14" class="cluster">
<title>cluster_packages/web/src/utils</title>
<path fill="#ffffff" stroke="black" stroke-width="2" d="M535.38,-714.31C535.38,-714.31 699,-714.31 699,-714.31 705,-714.31 711,-720.31 711,-726.31 711,-726.31 711,-786.31 711,-786.31 711,-792.31 705,-798.31 699,-798.31 699,-798.31 535.38,-798.31 535.38,-798.31 529.38,-798.31 523.38,-792.31 523.38,-786.31 523.38,-786.31 523.38,-726.31 523.38,-726.31 523.38,-720.31 529.38,-714.31 535.38,-714.31"/>
<text xml:space="preserve" text-anchor="middle" x="617.19" y="-785.76" font-family="Helvetica,sans-Serif" font-weight="bold" font-size="9.00">utils</text>
</g>
<!-- node_modules/.pnpm -->
<g id="node1" class="node">
<title>node_modules/.pnpm</title>
<g id="a_node1"><a xlink:href="https://www.npmjs.com/package/.pnpm" xlink:title=".pnpm">
<polygon fill="#c40b0a" fill-opacity="0.101961" stroke="black" points="808,-240.56 756.06,-240.56 754,-238.5 754,-222.06 805.94,-222.06 808,-224.11 808,-240.56"/>
<polyline fill="none" stroke="black" points="805.94,-238.5 754,-238.5"/>
<polyline fill="none" stroke="black" points="805.94,-238.5 805.94,-222.06"/>
<polyline fill="none" stroke="black" points="805.94,-238.5 808,-240.56"/>
<text xml:space="preserve" text-anchor="start" x="768.25" y="-228.01" font-family="Helvetica,sans-Serif" font-size="9.00" fill="#c40b0a">.pnpm</text>
</a>
</g>
</g>
<!-- packages/contracts/src/ethics&#45;core/index.ts -->
<g id="node2" class="node">
<title>packages/contracts/src/ethics&#45;core/index.ts</title>
<g id="a_node2"><a xlink:href="packages/contracts/src/ethics-core/index.ts" xlink:title="index.ts">
<path fill="#ddfeff" stroke="black" d="M1110.33,-762.56C1110.33,-762.56 1068.67,-762.56 1068.67,-762.56 1065.58,-762.56 1062.5,-759.48 1062.5,-756.39 1062.5,-756.39 1062.5,-750.23 1062.5,-750.23 1062.5,-747.14 1065.58,-744.06 1068.67,-744.06 1068.67,-744.06 1110.33,-744.06 1110.33,-744.06 1113.42,-744.06 1116.5,-747.14 1116.5,-750.23 1116.5,-750.23 1116.5,-756.39 1116.5,-756.39 1116.5,-759.48 1113.42,-762.56 1110.33,-762.56"/>
<text xml:space="preserve" text-anchor="start" x="1073.75" y="-750.01" font-family="Helvetica,sans-Serif" font-size="9.00">index.ts</text>
</a>
</g>
</g>
<!-- packages/contracts/src/ethics&#45;core/types.ts -->
<g id="node3" class="node">
<title>packages/contracts/src/ethics&#45;core/types.ts</title>
<g id="a_node3"><a xlink:href="packages/contracts/src/ethics-core/types.ts" xlink:title="types.ts">
<path fill="#ddfeff" stroke="black" d="M1177.33,-762.56C1177.33,-762.56 1135.67,-762.56 1135.67,-762.56 1132.58,-762.56 1129.5,-759.48 1129.5,-756.39 1129.5,-756.39 1129.5,-750.23 1129.5,-750.23 1129.5,-747.14 1132.58,-744.06 1135.67,-744.06 1135.67,-744.06 1177.33,-744.06 1177.33,-744.06 1180.42,-744.06 1183.5,-747.14 1183.5,-750.23 1183.5,-750.23 1183.5,-756.39 1183.5,-756.39 1183.5,-759.48 1180.42,-762.56 1177.33,-762.56"/>
<text xml:space="preserve" text-anchor="start" x="1141.12" y="-750.01" font-family="Helvetica,sans-Serif" font-size="9.00">types.ts</text>
</a>
</g>
</g>
<!-- packages/contracts/src/ethics&#45;core/index.ts&#45;&gt;packages/contracts/src/ethics&#45;core/types.ts -->
<g id="edge1" class="edge">
<title>packages/contracts/src/ethics&#45;core/index.ts&#45;&gt;packages/contracts/src/ethics&#45;core/types.ts</title>
<path fill="none" stroke="#000000" stroke-opacity="0.200000" d="M1116.94,-753.31C1118.59,-753.31 1120.27,-753.31 1121.95,-753.31"/>
<polygon fill="none" stroke="#000000" stroke-opacity="0.200000" points="1121.78,-755.41 1127.78,-753.31 1121.78,-751.21 1121.78,-755.41"/>
</g>
<!-- packages/contracts/src/web/client&#45;core.ts -->
<g id="node4" class="node">
<title>packages/contracts/src/web/client&#45;core.ts</title>
<g id="a_node4"><a xlink:href="packages/contracts/src/web/client-core.ts" xlink:title="client&#45;core.ts">
<path fill="#ddfeff" stroke="black" d="M965.33,-748.56C965.33,-748.56 909.92,-748.56 909.92,-748.56 906.83,-748.56 903.75,-745.48 903.75,-742.39 903.75,-742.39 903.75,-736.23 903.75,-736.23 903.75,-733.14 906.83,-730.06 909.92,-730.06 909.92,-730.06 965.33,-730.06 965.33,-730.06 968.42,-730.06 971.5,-733.14 971.5,-736.23 971.5,-736.23 971.5,-742.39 971.5,-742.39 971.5,-745.48 968.42,-748.56 965.33,-748.56"/>
<text xml:space="preserve" text-anchor="start" x="911.75" y="-736.01" font-family="Helvetica,sans-Serif" font-size="9.00">client&#45;core.ts</text>
</a>
</g>
</g>
<!-- packages/contracts/src/web/types.ts -->
<g id="node5" class="node">
<title>packages/contracts/src/web/types.ts</title>
<g id="a_node5"><a xlink:href="packages/contracts/src/web/types.ts" xlink:title="types.ts">
<path fill="#ddfeff" stroke="black" d="M1032.33,-762.56C1032.33,-762.56 990.67,-762.56 990.67,-762.56 987.58,-762.56 984.5,-759.48 984.5,-756.39 984.5,-756.39 984.5,-750.23 984.5,-750.23 984.5,-747.14 987.58,-744.06 990.67,-744.06 990.67,-744.06 1032.33,-744.06 1032.33,-744.06 1035.42,-744.06 1038.5,-747.14 1038.5,-750.23 1038.5,-750.23 1038.5,-756.39 1038.5,-756.39 1038.5,-759.48 1035.42,-762.56 1032.33,-762.56"/>
<text xml:space="preserve" text-anchor="start" x="996.12" y="-750.01" font-family="Helvetica,sans-Serif" font-size="9.00">types.ts</text>
</a>
</g>
</g>
<!-- packages/contracts/src/web/client&#45;core.ts&#45;&gt;packages/contracts/src/web/types.ts -->
<g id="edge2" class="edge">
<title>packages/contracts/src/web/client&#45;core.ts&#45;&gt;packages/contracts/src/web/types.ts</title>
<path fill="none" stroke="#000000" stroke-opacity="0.200000" d="M971.62,-745.73C973.49,-746.1 975.37,-746.47 977.25,-746.83"/>
<polygon fill="none" stroke="#000000" stroke-opacity="0.200000" points="976.61,-748.85 982.9,-747.93 977.41,-744.72 976.61,-748.85"/>
</g>
<!-- packages/contracts/src/web/types.ts&#45;&gt;packages/contracts/src/ethics&#45;core/index.ts -->
<g id="edge7" class="edge">
<title>packages/contracts/src/web/types.ts&#45;&gt;packages/contracts/src/ethics&#45;core/index.ts</title>
<path fill="none" stroke="#000000" stroke-opacity="0.200000" d="M1038.65,-753.31C1043.85,-753.31 1049.37,-753.31 1054.78,-753.31"/>
<polygon fill="none" stroke="#000000" stroke-opacity="0.200000" points="1054.53,-755.41 1060.53,-753.31 1054.53,-751.21 1054.53,-755.41"/>
</g>
<!-- packages/contracts/src/web/index.ts -->
<g id="node6" class="node">
<title>packages/contracts/src/web/index.ts</title>
<g id="a_node6"><a xlink:href="packages/contracts/src/web/index.ts" xlink:title="index.ts">
<path fill="#ddfeff" stroke="black" d="M801.83,-762.56C801.83,-762.56 760.17,-762.56 760.17,-762.56 757.08,-762.56 754,-759.48 754,-756.39 754,-756.39 754,-750.23 754,-750.23 754,-747.14 757.08,-744.06 760.17,-744.06 760.17,-744.06 801.83,-744.06 801.83,-744.06 804.92,-744.06 808,-747.14 808,-750.23 808,-750.23 808,-756.39 808,-756.39 808,-759.48 804.92,-762.56 801.83,-762.56"/>
<text xml:space="preserve" text-anchor="start" x="765.25" y="-750.01" font-family="Helvetica,sans-Serif" font-size="9.00">index.ts</text>
</a>
</g>
</g>
<!-- packages/contracts/src/web/index.ts&#45;&gt;packages/contracts/src/web/types.ts -->
<g id="edge4" class="edge">
<title>packages/contracts/src/web/index.ts&#45;&gt;packages/contracts/src/web/types.ts</title>
<path fill="none" stroke="#000000" stroke-opacity="0.200000" d="M808.35,-753.97C815.08,-754.11 822.31,-754.24 829,-754.31 892.33,-754.98 908.17,-755.12 971.5,-754.31 973.28,-754.29 975.1,-754.26 976.94,-754.22"/>
<polygon fill="none" stroke="#000000" stroke-opacity="0.200000" points="976.6,-756.33 982.56,-754.11 976.51,-752.13 976.6,-756.33"/>
</g>
<!-- packages/contracts/src/web/schemas.ts -->
<g id="node7" class="node">
<title>packages/contracts/src/web/schemas.ts</title>
<g id="a_node7"><a xlink:href="packages/contracts/src/web/schemas.ts" xlink:title="schemas.ts">
<path fill="#ddfeff" stroke="black" d="M884.58,-748.56C884.58,-748.56 835.17,-748.56 835.17,-748.56 832.08,-748.56 829,-745.48 829,-742.39 829,-742.39 829,-736.23 829,-736.23 829,-733.14 832.08,-730.06 835.17,-730.06 835.17,-730.06 884.58,-730.06 884.58,-730.06 887.67,-730.06 890.75,-733.14 890.75,-736.23 890.75,-736.23 890.75,-742.39 890.75,-742.39 890.75,-745.48 887.67,-748.56 884.58,-748.56"/>
<text xml:space="preserve" text-anchor="start" x="837" y="-736.01" font-family="Helvetica,sans-Serif" font-size="9.00">schemas.ts</text>
</a>
</g>
</g>
<!-- packages/contracts/src/web/index.ts&#45;&gt;packages/contracts/src/web/schemas.ts -->
<g id="edge3" class="edge">
<title>packages/contracts/src/web/index.ts&#45;&gt;packages/contracts/src/web/schemas.ts</title>
<path fill="none" stroke="#000000" stroke-width="2" stroke-opacity="0.200000" d="M808.46,-748.49C812.73,-747.71 817.23,-746.89 821.7,-746.08"/>
<polygon fill="#000000" fill-opacity="0.200000" stroke="#000000" stroke-width="2" stroke-opacity="0.200000" points="828.07,-747.05 821.79,-746.06 827.31,-742.92 828.07,-747.05"/>
</g>
<!-- packages/contracts/src/web/schemas.ts&#45;&gt;node_modules/.pnpm -->
<g id="edge6" class="edge">
<title>packages/contracts/src/web/schemas.ts&#45;&gt;node_modules/.pnpm</title>
<path fill="none" stroke="#000000" stroke-opacity="0.200000" d="M857.45,-729.92C848.22,-668.92 796.75,-328.76 784.58,-248.35"/>
<polygon fill="#000000" fill-opacity="0.200000" stroke="#000000" stroke-opacity="0.200000" points="786.67,-248.12 783.69,-242.5 782.51,-248.75 786.67,-248.12"/>
</g>
<!-- packages/contracts/src/web/schemas.ts&#45;&gt;packages/contracts/src/web/client&#45;core.ts -->
<g id="edge5" class="edge">
<title>packages/contracts/src/web/schemas.ts&#45;&gt;packages/contracts/src/web/client&#45;core.ts</title>
<path fill="none" stroke="#000000" stroke-opacity="0.200000" d="M891.25,-739.31C892.85,-739.31 894.48,-739.31 896.11,-739.31"/>
<polygon fill="none" stroke="#000000" stroke-opacity="0.200000" points="895.75,-741.41 901.75,-739.31 895.75,-737.21 895.75,-741.41"/>
</g>
<!-- packages/web/src/App.tsx -->
<g id="node8" class="node">
<title>packages/web/src/App.tsx</title>
<g id="a_node8"><a xlink:href="packages/web/src/App.tsx" xlink:title="App.tsx">
<path fill="#bbfeff" stroke="black" d="M151.46,-453.56C151.46,-453.56 109.79,-453.56 109.79,-453.56 106.71,-453.56 103.62,-450.48 103.62,-447.39 103.62,-447.39 103.62,-441.23 103.62,-441.23 103.62,-438.14 106.71,-435.06 109.79,-435.06 109.79,-435.06 151.46,-435.06 151.46,-435.06 154.54,-435.06 157.62,-438.14 157.62,-441.23 157.62,-441.23 157.62,-447.39 157.62,-447.39 157.62,-450.48 154.54,-453.56 151.46,-453.56"/>
<text xml:space="preserve" text-anchor="start" x="115.62" y="-441.01" font-family="Helvetica,sans-Serif" font-size="9.00">App.tsx</text>
</a>
</g>
</g>
<!-- packages/web/src/App.tsx&#45;&gt;node_modules/.pnpm -->
<g id="edge18" class="edge">
<title>packages/web/src/App.tsx&#45;&gt;node_modules/.pnpm</title>
<path fill="none" stroke="#000000" stroke-opacity="0.200000" d="M132.16,-434.64C135.46,-384.75 157.52,-154.71 287.25,-47.31 307.63,-30.44 319.29,-36.31 345.75,-36.31 345.75,-36.31 345.75,-36.31 573.75,-36.31 642.19,-36.31 674.26,-7.69 727,-51.31 776.94,-92.61 781.27,-178.43 780.72,-214.63"/>
<polygon fill="#000000" fill-opacity="0.200000" stroke="#000000" stroke-opacity="0.200000" points="778.62,-214.39 780.57,-220.44 782.82,-214.49 778.62,-214.39"/>
</g>
<!-- packages/web/src/components/Footer.tsx -->
<g id="node9" class="node">
<title>packages/web/src/components/Footer.tsx</title>
<g id="a_node9"><a xlink:href="packages/web/src/components/Footer.tsx" xlink:title="Footer.tsx">
<path fill="#bbfeff" stroke="black" d="M368.08,-439.56C368.08,-439.56 325.42,-439.56 325.42,-439.56 322.33,-439.56 319.25,-436.48 319.25,-433.39 319.25,-433.39 319.25,-427.23 319.25,-427.23 319.25,-424.14 322.33,-421.06 325.42,-421.06 325.42,-421.06 368.08,-421.06 368.08,-421.06 371.17,-421.06 374.25,-424.14 374.25,-427.23 374.25,-427.23 374.25,-433.39 374.25,-433.39 374.25,-436.48 371.17,-439.56 368.08,-439.56"/>
<text xml:space="preserve" text-anchor="start" x="327.25" y="-427.01" font-family="Helvetica,sans-Serif" font-size="9.00">Footer.tsx</text>
</a>
</g>
</g>
<!-- packages/web/src/App.tsx&#45;&gt;packages/web/src/components/Footer.tsx -->
<g id="edge8" class="edge">
<title>packages/web/src/App.tsx&#45;&gt;packages/web/src/components/Footer.tsx</title>
<path fill="none" stroke="#000000" stroke-width="2" stroke-opacity="0.200000" d="M157.91,-441.76C163.62,-441.24 169.64,-440.73 175.25,-440.31 221.8,-436.81 275.58,-433.83 310.09,-432.06"/>
<polygon fill="#000000" fill-opacity="0.200000" stroke="#000000" stroke-width="2" stroke-opacity="0.200000" points="309.95,-434.17 315.84,-431.77 309.74,-429.97 309.95,-434.17"/>
</g>
<!-- packages/web/src/components/Hero.tsx -->
<g id="node10" class="node">
<title>packages/web/src/components/Hero.tsx</title>
<g id="a_node10"><a xlink:href="packages/web/src/components/Hero.tsx" xlink:title="Hero.tsx">
<path fill="#bbfeff" stroke="black" d="M367.58,-594.56C367.58,-594.56 325.92,-594.56 325.92,-594.56 322.83,-594.56 319.75,-591.48 319.75,-588.39 319.75,-588.39 319.75,-582.23 319.75,-582.23 319.75,-579.14 322.83,-576.06 325.92,-576.06 325.92,-576.06 367.58,-576.06 367.58,-576.06 370.67,-576.06 373.75,-579.14 373.75,-582.23 373.75,-582.23 373.75,-588.39 373.75,-588.39 373.75,-591.48 370.67,-594.56 367.58,-594.56"/>
<text xml:space="preserve" text-anchor="start" x="329.88" y="-582.01" font-family="Helvetica,sans-Serif" font-size="9.00">Hero.tsx</text>
</a>
</g>
</g>
<!-- packages/web/src/App.tsx&#45;&gt;packages/web/src/components/Hero.tsx -->
<g id="edge9" class="edge">
<title>packages/web/src/App.tsx&#45;&gt;packages/web/src/components/Hero.tsx</title>
<path fill="none" stroke="#000000" stroke-width="2" stroke-opacity="0.200000" d="M157.9,-448.68C163.61,-449.58 169.63,-450.51 175.25,-451.31 198.31,-454.6 263.18,-447.45 279.25,-464.31 295.39,-481.25 272.36,-551.26 287.25,-569.31 293.08,-576.37 301.7,-580.48 310.55,-582.83"/>
<polygon fill="#000000" fill-opacity="0.200000" stroke="#000000" stroke-width="2" stroke-opacity="0.200000" points="310.11,-584.89 316.41,-584.03 310.95,-580.77 310.11,-584.89"/>
</g>
<!-- packages/web/src/components/Invite.tsx -->
<g id="node11" class="node">
<title>packages/web/src/components/Invite.tsx</title>
<g id="a_node11"><a xlink:href="packages/web/src/components/Invite.tsx" xlink:title="Invite.tsx">
<path fill="#bbfeff" stroke="black" d="M367.58,-377.56C367.58,-377.56 325.92,-377.56 325.92,-377.56 322.83,-377.56 319.75,-374.48 319.75,-371.39 319.75,-371.39 319.75,-365.23 319.75,-365.23 319.75,-362.14 322.83,-359.06 325.92,-359.06 325.92,-359.06 367.58,-359.06 367.58,-359.06 370.67,-359.06 373.75,-362.14 373.75,-365.23 373.75,-365.23 373.75,-371.39 373.75,-371.39 373.75,-374.48 370.67,-377.56 367.58,-377.56"/>
<text xml:space="preserve" text-anchor="start" x="329.12" y="-365.01" font-family="Helvetica,sans-Serif" font-size="9.00">Invite.tsx</text>
</a>
</g>
</g>
<!-- packages/web/src/App.tsx&#45;&gt;packages/web/src/components/Invite.tsx -->
<g id="edge10" class="edge">
<title>packages/web/src/App.tsx&#45;&gt;packages/web/src/components/Invite.tsx</title>
<path fill="none" stroke="#000000" stroke-width="2" stroke-opacity="0.200000" d="M140.37,-434.63C148.57,-426.15 161.57,-414.15 175.25,-407.31 218.93,-385.44 275.04,-375.66 310.71,-371.4"/>
<polygon fill="#000000" fill-opacity="0.200000" stroke="#000000" stroke-width="2" stroke-opacity="0.200000" points="310.58,-373.53 316.31,-370.78 310.11,-369.36 310.58,-373.53"/>
</g>
<!-- packages/web/src/components/OpenAccountable.tsx -->
<g id="node12" class="node">
<title>packages/web/src/components/OpenAccountable.tsx</title>
<g id="a_node12"><a xlink:href="packages/web/src/components/OpenAccountable.tsx" xlink:title="OpenAccountable.tsx">
<path fill="#bbfeff" stroke="black" d="M392.08,-408.56C392.08,-408.56 301.42,-408.56 301.42,-408.56 298.33,-408.56 295.25,-405.48 295.25,-402.39 295.25,-402.39 295.25,-396.23 295.25,-396.23 295.25,-393.14 298.33,-390.06 301.42,-390.06 301.42,-390.06 392.08,-390.06 392.08,-390.06 395.17,-390.06 398.25,-393.14 398.25,-396.23 398.25,-396.23 398.25,-402.39 398.25,-402.39 398.25,-405.48 395.17,-408.56 392.08,-408.56"/>
<text xml:space="preserve" text-anchor="start" x="303.25" y="-396.01" font-family="Helvetica,sans-Serif" font-size="9.00">OpenAccountable.tsx</text>
</a>
</g>
</g>
<!-- packages/web/src/App.tsx&#45;&gt;packages/web/src/components/OpenAccountable.tsx -->
<g id="edge11" class="edge">
<title>packages/web/src/App.tsx&#45;&gt;packages/web/src/components/OpenAccountable.tsx</title>
<path fill="none" stroke="#000000" stroke-width="2" stroke-opacity="0.200000" d="M157.8,-436.03C163.52,-434.35 169.57,-432.68 175.25,-431.31 211.93,-422.43 253.55,-414.57 286.49,-408.87"/>
<polygon fill="#000000" fill-opacity="0.200000" stroke="#000000" stroke-width="2" stroke-opacity="0.200000" points="286.56,-410.99 292.11,-407.9 285.85,-406.85 286.56,-410.99"/>
</g>
<!-- packages/web/src/components/Services.tsx -->
<g id="node13" class="node">
<title>packages/web/src/components/Services.tsx</title>
<g id="a_node13"><a xlink:href="packages/web/src/components/Services.tsx" xlink:title="Services.tsx">
<path fill="#bbfeff" stroke="black" d="M372.96,-563.56C372.96,-563.56 320.54,-563.56 320.54,-563.56 317.46,-563.56 314.38,-560.48 314.38,-557.39 314.38,-557.39 314.38,-551.23 314.38,-551.23 314.38,-548.14 317.46,-545.06 320.54,-545.06 320.54,-545.06 372.96,-545.06 372.96,-545.06 376.04,-545.06 379.12,-548.14 379.12,-551.23 379.12,-551.23 379.12,-557.39 379.12,-557.39 379.12,-560.48 376.04,-563.56 372.96,-563.56"/>
<text xml:space="preserve" text-anchor="start" x="322.38" y="-551.01" font-family="Helvetica,sans-Serif" font-size="9.00">Services.tsx</text>
</a>
</g>
</g>
<!-- packages/web/src/App.tsx&#45;&gt;packages/web/src/components/Services.tsx -->
<g id="edge12" class="edge">
<title>packages/web/src/App.tsx&#45;&gt;packages/web/src/components/Services.tsx</title>
<path fill="none" stroke="#000000" stroke-width="2" stroke-opacity="0.200000" d="M157.92,-442.21C195.69,-439.81 262.59,-438.1 279.25,-454.31 292.69,-467.39 275.18,-523.96 287.25,-538.31 292.02,-543.98 298.6,-547.75 305.62,-550.22"/>
<polygon fill="#000000" fill-opacity="0.200000" stroke="#000000" stroke-width="2" stroke-opacity="0.200000" points="304.74,-552.15 311.08,-551.75 305.87,-548.11 304.74,-552.15"/>
</g>
<!-- packages/web/src/pages/BlogListPage.tsx -->
<g id="node14" class="node">
<title>packages/web/src/pages/BlogListPage.tsx</title>
<g id="a_node14"><a xlink:href="packages/web/src/pages/BlogListPage.tsx" xlink:title="BlogListPage.tsx">
<path fill="#bbfeff" stroke="black" d="M263.21,-555.56C263.21,-555.56 191.29,-555.56 191.29,-555.56 188.21,-555.56 185.12,-552.48 185.12,-549.39 185.12,-549.39 185.12,-543.23 185.12,-543.23 185.12,-540.14 188.21,-537.06 191.29,-537.06 191.29,-537.06 263.21,-537.06 263.21,-537.06 266.29,-537.06 269.38,-540.14 269.38,-543.23 269.38,-543.23 269.38,-549.39 269.38,-549.39 269.38,-552.48 266.29,-555.56 263.21,-555.56"/>
<text xml:space="preserve" text-anchor="start" x="193.12" y="-543.01" font-family="Helvetica,sans-Serif" font-size="9.00">BlogListPage.tsx</text>
</a>
</g>
</g>
<!-- packages/web/src/App.tsx&#45;&gt;packages/web/src/pages/BlogListPage.tsx -->
<g id="edge13" class="edge">
<title>packages/web/src/App.tsx&#45;&gt;packages/web/src/pages/BlogListPage.tsx</title>
<path fill="none" stroke="#000000" stroke-width="2" stroke-opacity="0.200000" d="M158.03,-450.79C161.58,-452.69 164.83,-455.14 167.25,-458.31 186.82,-483.87 154.79,-505.45 175.25,-530.31 176.1,-531.34 177.01,-532.3 177.98,-533.21"/>
<polygon fill="#000000" fill-opacity="0.200000" stroke="#000000" stroke-width="2" stroke-opacity="0.200000" points="176.53,-534.75 182.62,-536.55 178.98,-531.34 176.53,-534.75"/>
</g>
<!-- packages/web/src/pages/BlogPostPage.tsx -->
<g id="node15" class="node">
<title>packages/web/src/pages/BlogPostPage.tsx</title>
<g id="a_node15"><a xlink:href="packages/web/src/pages/BlogPostPage.tsx" xlink:title="BlogPostPage.tsx">
<path fill="#bbfeff" stroke="black" d="M265.08,-586.56C265.08,-586.56 189.42,-586.56 189.42,-586.56 186.33,-586.56 183.25,-583.48 183.25,-580.39 183.25,-580.39 183.25,-574.23 183.25,-574.23 183.25,-571.14 186.33,-568.06 189.42,-568.06 189.42,-568.06 265.08,-568.06 265.08,-568.06 268.17,-568.06 271.25,-571.14 271.25,-574.23 271.25,-574.23 271.25,-580.39 271.25,-580.39 271.25,-583.48 268.17,-586.56 265.08,-586.56"/>
<text xml:space="preserve" text-anchor="start" x="191.25" y="-574.01" font-family="Helvetica,sans-Serif" font-size="9.00">BlogPostPage.tsx</text>
</a>
</g>
</g>
<!-- packages/web/src/App.tsx&#45;&gt;packages/web/src/pages/BlogPostPage.tsx -->
<g id="edge14" class="edge">
<title>packages/web/src/App.tsx&#45;&gt;packages/web/src/pages/BlogPostPage.tsx</title>
<path fill="none" stroke="#000000" stroke-width="2" stroke-opacity="0.200000" d="M157.77,-450.54C161.45,-452.47 164.8,-455 167.25,-458.31 180.9,-476.76 160.95,-543.34 175.25,-561.31 175.66,-561.83 176.09,-562.33 176.53,-562.81"/>
<polygon fill="#000000" fill-opacity="0.200000" stroke="#000000" stroke-width="2" stroke-opacity="0.200000" points="174.79,-564.09 180.74,-566.32 177.48,-560.87 174.79,-564.09"/>
</g>
<!-- packages/web/src/pages/EmbedPage.tsx -->
<g id="node16" class="node">
<title>packages/web/src/pages/EmbedPage.tsx</title>
<g id="a_node16"><a xlink:href="packages/web/src/pages/EmbedPage.tsx" xlink:title="EmbedPage.tsx">
<path fill="#bbfeff" stroke="black" d="M261.33,-524.56C261.33,-524.56 193.17,-524.56 193.17,-524.56 190.08,-524.56 187,-521.48 187,-518.39 187,-518.39 187,-512.23 187,-512.23 187,-509.14 190.08,-506.06 193.17,-506.06 193.17,-506.06 261.33,-506.06 261.33,-506.06 264.42,-506.06 267.5,-509.14 267.5,-512.23 267.5,-512.23 267.5,-518.39 267.5,-518.39 267.5,-521.48 264.42,-524.56 261.33,-524.56"/>
<text xml:space="preserve" text-anchor="start" x="195" y="-512.01" font-family="Helvetica,sans-Serif" font-size="9.00">EmbedPage.tsx</text>
</a>
</g>
</g>
<!-- packages/web/src/App.tsx&#45;&gt;packages/web/src/pages/EmbedPage.tsx -->
<g id="edge15" class="edge">
<title>packages/web/src/App.tsx&#45;&gt;packages/web/src/pages/EmbedPage.tsx</title>
<path fill="none" stroke="#000000" stroke-width="2" stroke-opacity="0.200000" d="M157.81,-450.97C161.39,-452.85 164.7,-455.24 167.25,-458.31 179.13,-472.57 162.87,-485.47 175.25,-499.31 176.43,-500.63 177.72,-501.85 179.1,-502.96"/>
<polygon fill="#000000" fill-opacity="0.200000" stroke="#000000" stroke-width="2" stroke-opacity="0.200000" points="177.85,-504.65 184.04,-506.12 180.11,-501.11 177.85,-504.65"/>
</g>
<!-- packages/web/src/pages/InvitePage.tsx -->
<g id="node17" class="node">
<title>packages/web/src/pages/InvitePage.tsx</title>
<g id="a_node17"><a xlink:href="packages/web/src/pages/InvitePage.tsx" xlink:title="InvitePage.tsx">
<path fill="#bbfeff" stroke="black" d="M257.58,-493.56C257.58,-493.56 196.92,-493.56 196.92,-493.56 193.83,-493.56 190.75,-490.48 190.75,-487.39 190.75,-487.39 190.75,-481.23 190.75,-481.23 190.75,-478.14 193.83,-475.06 196.92,-475.06 196.92,-475.06 257.58,-475.06 257.58,-475.06 260.67,-475.06 263.75,-478.14 263.75,-481.23 263.75,-481.23 263.75,-487.39 263.75,-487.39 263.75,-490.48 260.67,-493.56 257.58,-493.56"/>
<text xml:space="preserve" text-anchor="start" x="198.75" y="-481.01" font-family="Helvetica,sans-Serif" font-size="9.00">InvitePage.tsx</text>
</a>
</g>
</g>
<!-- packages/web/src/App.tsx&#45;&gt;packages/web/src/pages/InvitePage.tsx -->
<g id="edge16" class="edge">
<title>packages/web/src/App.tsx&#45;&gt;packages/web/src/pages/InvitePage.tsx</title>
<path fill="none" stroke="#000000" stroke-width="2" stroke-opacity="0.200000" d="M158.02,-452.4C161.32,-454.05 164.5,-456.01 167.25,-458.31 172.45,-462.66 169.79,-467.29 175.25,-471.31 177.49,-472.96 179.93,-474.4 182.47,-475.66"/>
<polygon fill="#000000" fill-opacity="0.200000" stroke="#000000" stroke-width="2" stroke-opacity="0.200000" points="181.23,-477.42 187.57,-477.77 182.83,-473.54 181.23,-477.42"/>
</g>
<!-- packages/web/src/pages/TracePage.tsx -->
<g id="node18" class="node">
<title>packages/web/src/pages/TracePage.tsx</title>
<g id="a_node18"><a xlink:href="packages/web/src/pages/TracePage.tsx" xlink:title="TracePage.tsx">
<path fill="#bbfeff" stroke="black" d="M258.33,-617.56C258.33,-617.56 196.17,-617.56 196.17,-617.56 193.08,-617.56 190,-614.48 190,-611.39 190,-611.39 190,-605.23 190,-605.23 190,-602.14 193.08,-599.06 196.17,-599.06 196.17,-599.06 258.33,-599.06 258.33,-599.06 261.42,-599.06 264.5,-602.14 264.5,-605.23 264.5,-605.23 264.5,-611.39 264.5,-611.39 264.5,-614.48 261.42,-617.56 258.33,-617.56"/>
<text xml:space="preserve" text-anchor="start" x="198" y="-605.01" font-family="Helvetica,sans-Serif" font-size="9.00">TracePage.tsx</text>
</a>
</g>
</g>
<!-- packages/web/src/App.tsx&#45;&gt;packages/web/src/pages/TracePage.tsx -->
<g id="edge17" class="edge">
<title>packages/web/src/App.tsx&#45;&gt;packages/web/src/pages/TracePage.tsx</title>
<path fill="none" stroke="#000000" stroke-width="2" stroke-opacity="0.200000" d="M157.82,-450.5C161.49,-452.43 164.83,-454.97 167.25,-458.31 184.78,-482.45 156.88,-568.8 175.25,-592.31 177.11,-594.69 179.31,-596.72 181.75,-598.45"/>
<polygon fill="#000000" fill-opacity="0.200000" stroke="#000000" stroke-width="2" stroke-opacity="0.200000" points="180.73,-600.28 187,-601.35 182.76,-596.61 180.73,-600.28"/>
</g>
<!-- packages/web/src/components/AskMeAnything.tsx -->
<g id="node20" class="node">
<title>packages/web/src/components/AskMeAnything.tsx</title>
<g id="a_node20"><a xlink:href="packages/web/src/components/AskMeAnything.tsx" xlink:title="AskMeAnything.tsx">
<path fill="#bbfeff" stroke="black" d="M498.33,-563.56C498.33,-563.56 417.42,-563.56 417.42,-563.56 414.33,-563.56 411.25,-560.48 411.25,-557.39 411.25,-557.39 411.25,-551.23 411.25,-551.23 411.25,-548.14 414.33,-545.06 417.42,-545.06 417.42,-545.06 498.33,-545.06 498.33,-545.06 501.42,-545.06 504.5,-548.14 504.5,-551.23 504.5,-551.23 504.5,-557.39 504.5,-557.39 504.5,-560.48 501.42,-563.56 498.33,-563.56"/>
<text xml:space="preserve" text-anchor="start" x="419.25" y="-551.01" font-family="Helvetica,sans-Serif" font-size="9.00">AskMeAnything.tsx</text>
</a>
</g>
</g>
<!-- packages/web/src/components/Hero.tsx&#45;&gt;packages/web/src/components/AskMeAnything.tsx -->
<g id="edge33" class="edge">
<title>packages/web/src/components/Hero.tsx&#45;&gt;packages/web/src/components/AskMeAnything.tsx</title>
<path fill="none" stroke="#000000" stroke-width="2" stroke-opacity="0.200000" d="M374.17,-577.8C386.17,-574.39 400.68,-570.27 414.17,-566.44"/>
<polygon fill="#000000" fill-opacity="0.200000" stroke="#000000" stroke-width="2" stroke-opacity="0.200000" points="414.74,-568.46 419.94,-564.8 413.59,-564.42 414.74,-568.46"/>
</g>
<!-- packages/web/src/components/Header.tsx -->
<g id="node29" class="node">
<title>packages/web/src/components/Header.tsx</title>
<g id="a_node29"><a xlink:href="packages/web/src/components/Header.tsx" xlink:title="Header.tsx">
<path fill="#bbfeff" stroke="black" d="M481.46,-532.56C481.46,-532.56 434.29,-532.56 434.29,-532.56 431.21,-532.56 428.12,-529.48 428.12,-526.39 428.12,-526.39 428.12,-520.23 428.12,-520.23 428.12,-517.14 431.21,-514.06 434.29,-514.06 434.29,-514.06 481.46,-514.06 481.46,-514.06 484.54,-514.06 487.62,-517.14 487.62,-520.23 487.62,-520.23 487.62,-526.39 487.62,-526.39 487.62,-529.48 484.54,-532.56 481.46,-532.56"/>
<text xml:space="preserve" text-anchor="start" x="436.12" y="-520.01" font-family="Helvetica,sans-Serif" font-size="9.00">Header.tsx</text>
</a>
</g>
</g>
<!-- packages/web/src/components/Hero.tsx&#45;&gt;packages/web/src/components/Header.tsx -->
<g id="edge34" class="edge">
<title>packages/web/src/components/Hero.tsx&#45;&gt;packages/web/src/components/Header.tsx</title>
<path fill="none" stroke="#000000" stroke-width="2" stroke-opacity="0.200000" d="M374.07,-581.45C382.59,-579.11 391.56,-575.35 398.25,-569.31 409.04,-559.57 400.61,-549.21 411.25,-539.31 413.8,-536.93 416.73,-534.9 419.84,-533.18"/>
<polygon fill="#000000" fill-opacity="0.200000" stroke="#000000" stroke-width="2" stroke-opacity="0.200000" points="420.54,-535.17 425.1,-530.74 418.78,-531.36 420.54,-535.17"/>
</g>
<!-- packages/web/src/components/Services.tsx&#45;&gt;node_modules/.pnpm -->
<g id="edge44" class="edge">
<title>packages/web/src/components/Services.tsx&#45;&gt;node_modules/.pnpm</title>
<path fill="none" stroke="#000000" stroke-opacity="0.200000" d="M379.59,-550.42C386.76,-548.03 393.61,-544.25 398.25,-538.31 426.76,-501.81 389.13,-371 411.25,-330.31 437.99,-281.11 460.16,-275.22 512.5,-255.31 554.48,-239.34 684.79,-233.81 746.69,-232.06"/>
<polygon fill="#000000" fill-opacity="0.200000" stroke="#000000" stroke-opacity="0.200000" points="746.44,-234.16 752.38,-231.9 746.33,-229.97 746.44,-234.16"/>
</g>
<!-- packages/web/src/theme.tsx -->
<g id="node32" class="node">
<title>packages/web/src/theme.tsx</title>
<g id="a_node32"><a xlink:href="packages/web/src/theme.tsx" xlink:title="theme.tsx">
<path fill="#bbfeff" stroke="black" d="M697.33,-532.56C697.33,-532.56 654.67,-532.56 654.67,-532.56 651.58,-532.56 648.5,-529.48 648.5,-526.39 648.5,-526.39 648.5,-520.23 648.5,-520.23 648.5,-517.14 651.58,-514.06 654.67,-514.06 654.67,-514.06 697.33,-514.06 697.33,-514.06 700.42,-514.06 703.5,-517.14 703.5,-520.23 703.5,-520.23 703.5,-526.39 703.5,-526.39 703.5,-529.48 700.42,-532.56 697.33,-532.56"/>
<text xml:space="preserve" text-anchor="start" x="656.5" y="-520.01" font-family="Helvetica,sans-Serif" font-size="9.00">theme.tsx</text>
</a>
</g>
</g>
<!-- packages/web/src/components/Services.tsx&#45;&gt;packages/web/src/theme.tsx -->
<g id="edge43" class="edge">
<title>packages/web/src/components/Services.tsx&#45;&gt;packages/web/src/theme.tsx</title>
<path fill="none" stroke="#000000" stroke-width="2" stroke-opacity="0.200000" d="M379.58,-548.74C386.33,-546.39 392.99,-543.05 398.25,-538.31 409.04,-528.57 400.2,-517.74 411.25,-508.31 446.59,-478.14 466.41,-488.13 512.5,-482.31 565.63,-475.6 583.4,-462.11 633,-482.31 645.21,-487.28 655.81,-497.7 663.31,-506.79"/>
<polygon fill="#000000" fill-opacity="0.200000" stroke="#000000" stroke-width="2" stroke-opacity="0.200000" points="661.44,-507.81 666.77,-511.28 664.76,-505.24 661.44,-507.81"/>
</g>
<!-- packages/web/src/pages/BlogListPage.tsx&#45;&gt;node_modules/.pnpm -->
<g id="edge55" class="edge">
<title>packages/web/src/pages/BlogListPage.tsx&#45;&gt;node_modules/.pnpm</title>
<path fill="none" stroke="#000000" stroke-opacity="0.200000" d="M269.73,-538.57C273.4,-536.43 276.69,-533.72 279.25,-530.31 292.58,-512.53 272.13,-146.6 287.25,-130.31 338.78,-74.82 381.15,-114.31 456.88,-114.31 456.88,-114.31 456.88,-114.31 573.75,-114.31 642.23,-114.31 670.32,-91.88 727,-130.31 756.3,-150.18 770.53,-191.56 776.44,-214.71"/>
<polygon fill="#000000" fill-opacity="0.200000" stroke="#000000" stroke-opacity="0.200000" points="774.35,-214.99 777.79,-220.33 778.43,-214.01 774.35,-214.99"/>
</g>
<!-- packages/web/src/components/BlogPostCard.tsx -->
<g id="node25" class="node">
<title>packages/web/src/components/BlogPostCard.tsx</title>
<g id="a_node25"><a xlink:href="packages/web/src/components/BlogPostCard.tsx" xlink:title="BlogPostCard.tsx">
<path fill="#bbfeff" stroke="black" d="M383.83,-470.56C383.83,-470.56 309.67,-470.56 309.67,-470.56 306.58,-470.56 303.5,-467.48 303.5,-464.39 303.5,-464.39 303.5,-458.23 303.5,-458.23 303.5,-455.14 306.58,-452.06 309.67,-452.06 309.67,-452.06 383.83,-452.06 383.83,-452.06 386.92,-452.06 390,-455.14 390,-458.23 390,-458.23 390,-464.39 390,-464.39 390,-467.48 386.92,-470.56 383.83,-470.56"/>
<text xml:space="preserve" text-anchor="start" x="311.5" y="-458.01" font-family="Helvetica,sans-Serif" font-size="9.00">BlogPostCard.tsx</text>
</a>
</g>
</g>
<!-- packages/web/src/pages/BlogListPage.tsx&#45;&gt;packages/web/src/components/BlogPostCard.tsx -->
<g id="edge51" class="edge">
<title>packages/web/src/pages/BlogListPage.tsx&#45;&gt;packages/web/src/components/BlogPostCard.tsx</title>
<path fill="none" stroke="#000000" stroke-width="2" stroke-opacity="0.200000" d="M269.78,-537.94C273.34,-535.92 276.59,-533.41 279.25,-530.31 294.75,-512.22 271.42,-495.11 287.25,-477.31 289.58,-474.68 292.3,-472.47 295.27,-470.61"/>
<polygon fill="#000000" fill-opacity="0.200000" stroke="#000000" stroke-width="2" stroke-opacity="0.200000" points="295.96,-472.61 300.36,-468.03 294.06,-468.87 295.96,-472.61"/>
</g>
<!-- packages/web/src/types/blog.ts -->
<g id="node26" class="node">
<title>packages/web/src/types/blog.ts</title>
<g id="a_node26"><a xlink:href="packages/web/src/types/blog.ts" xlink:title="blog.ts">
<path fill="#ddfeff" stroke="black" d="M696.83,-679.56C696.83,-679.56 655.17,-679.56 655.17,-679.56 652.08,-679.56 649,-676.48 649,-673.39 649,-673.39 649,-667.23 649,-667.23 649,-664.14 652.08,-661.06 655.17,-661.06 655.17,-661.06 696.83,-661.06 696.83,-661.06 699.92,-661.06 703,-664.14 703,-667.23 703,-667.23 703,-673.39 703,-673.39 703,-676.48 699.92,-679.56 696.83,-679.56"/>
<text xml:space="preserve" text-anchor="start" x="662.5" y="-667.01" font-family="Helvetica,sans-Serif" font-size="9.00">blog.ts</text>
</a>
</g>
</g>
<!-- packages/web/src/pages/BlogListPage.tsx&#45;&gt;packages/web/src/types/blog.ts -->
<g id="edge53" class="edge">
<title>packages/web/src/pages/BlogListPage.tsx&#45;&gt;packages/web/src/types/blog.ts</title>
<path fill="none" stroke="#000000" stroke-opacity="0.200000" d="M269.44,-554.28C273.16,-556.38 276.54,-559.01 279.25,-562.31 300.5,-588.24 264.81,-612.41 287.25,-637.31 304.38,-656.32 487.05,-682.63 512.5,-685.31 565.76,-690.92 580.23,-694.45 633,-685.31 637.01,-684.61 641.13,-683.57 645.17,-682.36"/>
<polygon fill="none" stroke="#000000" stroke-opacity="0.200000" points="645.8,-684.36 650.84,-680.49 644.48,-680.37 645.8,-684.36"/>
</g>
<!-- packages/web/src/pages/BlogListPage.tsx&#45;&gt;packages/web/src/components/Header.tsx -->
<g id="edge52" class="edge">
<title>packages/web/src/pages/BlogListPage.tsx&#45;&gt;packages/web/src/components/Header.tsx</title>
<path fill="none" stroke="#000000" stroke-width="2" stroke-opacity="0.200000" d="M269.83,-554.63C273.38,-556.67 276.62,-559.19 279.25,-562.31 296.31,-582.53 267.32,-603.9 287.25,-621.31 324.4,-653.76 360.73,-653.35 398.25,-621.31 426.31,-597.35 387.61,-567.64 411.25,-539.31 413.67,-536.41 416.65,-534.03 419.92,-532.09"/>
<polygon fill="#000000" fill-opacity="0.200000" stroke="#000000" stroke-width="2" stroke-opacity="0.200000" points="420.68,-534.05 425.2,-529.58 418.88,-530.26 420.68,-534.05"/>
</g>
<!-- packages/web/src/utils/blog.ts -->
<g id="node35" class="node">
<title>packages/web/src/utils/blog.ts</title>
<g id="a_node35"><a xlink:href="packages/web/src/utils/blog.ts" xlink:title="blog.ts">
<path fill="#ddfeff" stroke="black" d="M593.58,-771.56C593.58,-771.56 551.92,-771.56 551.92,-771.56 548.83,-771.56 545.75,-768.48 545.75,-765.39 545.75,-765.39 545.75,-759.23 545.75,-759.23 545.75,-756.14 548.83,-753.06 551.92,-753.06 551.92,-753.06 593.58,-753.06 593.58,-753.06 596.67,-753.06 599.75,-756.14 599.75,-759.23 599.75,-759.23 599.75,-765.39 599.75,-765.39 599.75,-768.48 596.67,-771.56 593.58,-771.56"/>
<text xml:space="preserve" text-anchor="start" x="559.25" y="-759.01" font-family="Helvetica,sans-Serif" font-size="9.00">blog.ts</text>
</a>
</g>
</g>
<!-- packages/web/src/pages/BlogListPage.tsx&#45;&gt;packages/web/src/utils/blog.ts -->
<g id="edge54" class="edge">
<title>packages/web/src/pages/BlogListPage.tsx&#45;&gt;packages/web/src/utils/blog.ts</title>
<path fill="none" stroke="#000000" stroke-width="2" stroke-opacity="0.200000" d="M269.54,-554.2C273.25,-556.31 276.59,-558.97 279.25,-562.31 293.81,-580.63 273,-648.75 287.25,-667.31 287.38,-667.47 512.3,-746.25 512.5,-746.31 520.35,-748.74 528.84,-751.16 536.88,-753.35"/>
<polygon fill="#000000" fill-opacity="0.200000" stroke="#000000" stroke-width="2" stroke-opacity="0.200000" points="536.12,-755.32 542.46,-754.85 537.21,-751.26 536.12,-755.32"/>
</g>
<!-- packages/web/src/pages/BlogPostPage.tsx&#45;&gt;node_modules/.pnpm -->
<g id="edge60" class="edge">
<title>packages/web/src/pages/BlogPostPage.tsx&#45;&gt;node_modules/.pnpm</title>
<path fill="none" stroke="#000000" stroke-opacity="0.200000" d="M271.61,-568.4C274.52,-566.47 277.13,-564.13 279.25,-561.31 292.75,-543.3 271.94,-172.8 287.25,-156.31 338.77,-100.81 381.15,-140.31 456.88,-140.31 456.88,-140.31 456.88,-140.31 573.75,-140.31 642.23,-140.31 667.91,-121.7 727,-156.31 749.96,-169.75 765.5,-197.53 773.55,-215.25"/>
<polygon fill="#000000" fill-opacity="0.200000" stroke="#000000" stroke-opacity="0.200000" points="771.43,-215.66 775.75,-220.33 775.29,-213.99 771.43,-215.66"/>
</g>
<!-- packages/web/src/pages/BlogPostPage.tsx&#45;&gt;packages/web/src/types/blog.ts -->
<g id="edge58" class="edge">
<title>packages/web/src/pages/BlogPostPage.tsx&#45;&gt;packages/web/src/types/blog.ts</title>
<path fill="none" stroke="#000000" stroke-opacity="0.200000" d="M271.74,-586.79C274.54,-588.6 277.1,-590.75 279.25,-593.31 296.57,-613.89 269.1,-633.45 287.25,-653.31 355.96,-728.47 410.9,-688.32 512.5,-695.31 565.93,-698.98 581.36,-709.51 633,-695.31 641.39,-693 649.81,-688.53 656.87,-683.99"/>
<polygon fill="none" stroke="#000000" stroke-opacity="0.200000" points="657.91,-685.83 661.69,-680.72 655.55,-682.35 657.91,-685.83"/>
</g>
<!-- packages/web/src/components/BlogProvenance.tsx -->
<g id="node27" class="node">
<title>packages/web/src/components/BlogProvenance.tsx</title>
<g id="a_node27"><a xlink:href="packages/web/src/components/BlogProvenance.tsx" xlink:title="BlogProvenance.tsx">
<path fill="#bbfeff" stroke="black" d="M389.46,-501.56C389.46,-501.56 304.04,-501.56 304.04,-501.56 300.96,-501.56 297.88,-498.48 297.88,-495.39 297.88,-495.39 297.88,-489.23 297.88,-489.23 297.88,-486.14 300.96,-483.06 304.04,-483.06 304.04,-483.06 389.46,-483.06 389.46,-483.06 392.54,-483.06 395.62,-486.14 395.62,-489.23 395.62,-489.23 395.62,-495.39 395.62,-495.39 395.62,-498.48 392.54,-501.56 389.46,-501.56"/>
<text xml:space="preserve" text-anchor="start" x="305.88" y="-489.01" font-family="Helvetica,sans-Serif" font-size="9.00">BlogProvenance.tsx</text>
</a>
</g>
</g>
<!-- packages/web/src/pages/BlogPostPage.tsx&#45;&gt;packages/web/src/components/BlogProvenance.tsx -->
<g id="edge56" class="edge">
<title>packages/web/src/pages/BlogPostPage.tsx&#45;&gt;packages/web/src/components/BlogProvenance.tsx</title>
<path fill="none" stroke="#000000" stroke-width="2" stroke-opacity="0.200000" d="M271.69,-567.79C274.51,-565.99 277.08,-563.85 279.25,-561.31 294.75,-543.22 271.42,-526.11 287.25,-508.31 288.26,-507.17 289.34,-506.11 290.49,-505.13"/>
<polygon fill="#000000" fill-opacity="0.200000" stroke="#000000" stroke-width="2" stroke-opacity="0.200000" points="291.36,-507.07 295.12,-501.94 288.99,-503.61 291.36,-507.07"/>
</g>
<!-- packages/web/src/pages/BlogPostPage.tsx&#45;&gt;packages/web/src/components/Header.tsx -->
<g id="edge57" class="edge">
<title>packages/web/src/pages/BlogPostPage.tsx&#45;&gt;packages/web/src/components/Header.tsx</title>
<path fill="none" stroke="#000000" stroke-width="2" stroke-opacity="0.200000" d="M271.61,-586.9C274.44,-588.69 277.04,-590.8 279.25,-593.31 292.41,-608.21 271.99,-624.57 287.25,-637.31 325.13,-668.92 361.14,-669.82 398.25,-637.31 431.3,-608.36 383.53,-573.4 411.25,-539.31 413.63,-536.38 416.59,-533.98 419.84,-532.03"/>
<polygon fill="#000000" fill-opacity="0.200000" stroke="#000000" stroke-width="2" stroke-opacity="0.200000" points="420.6,-533.99 425.11,-529.51 418.79,-530.2 420.6,-533.99"/>
</g>
<!-- packages/web/src/pages/BlogPostPage.tsx&#45;&gt;packages/web/src/utils/blog.ts -->
<g id="edge59" class="edge">
<title>packages/web/src/pages/BlogPostPage.tsx&#45;&gt;packages/web/src/utils/blog.ts</title>
<path fill="none" stroke="#000000" stroke-width="2" stroke-opacity="0.200000" d="M271.46,-586.33C274.41,-588.24 277.07,-590.54 279.25,-593.31 295.25,-613.6 270.06,-690.02 287.25,-709.31 350.51,-780.32 475.76,-775.3 536.74,-767.85"/>
<polygon fill="#000000" fill-opacity="0.200000" stroke="#000000" stroke-width="2" stroke-opacity="0.200000" points="536.93,-769.95 542.61,-767.09 536.39,-765.78 536.93,-769.95"/>
</g>
<!-- packages/web/src/pages/EmbedPage.tsx&#45;&gt;node_modules/.pnpm -->
<g id="edge63" class="edge">
<title>packages/web/src/pages/EmbedPage.tsx&#45;&gt;node_modules/.pnpm</title>
<path fill="none" stroke="#000000" stroke-opacity="0.200000" d="M267.78,-508.63C272.24,-506.35 276.24,-503.32 279.25,-499.31 292.42,-481.75 272.31,-120.39 287.25,-104.31 338.78,-48.83 381.15,-88.31 456.88,-88.31 456.88,-88.31 456.88,-88.31 573.75,-88.31 642.23,-88.31 672.06,-63.43 727,-104.31 762.76,-130.92 774.55,-186.2 778.31,-214.23"/>
<polygon fill="#000000" fill-opacity="0.200000" stroke="#000000" stroke-opacity="0.200000" points="776.22,-214.47 779.03,-220.17 780.39,-213.97 776.22,-214.47"/>
</g>
<!-- packages/web/src/pages/EmbedPage.tsx&#45;&gt;packages/web/src/components/AskMeAnything.tsx -->
<g id="edge61" class="edge">
<title>packages/web/src/pages/EmbedPage.tsx&#45;&gt;packages/web/src/components/AskMeAnything.tsx</title>
<path fill="none" stroke="#000000" stroke-width="2" stroke-opacity="0.200000" d="M267.53,-522.18C272.02,-524.44 276.11,-527.4 279.25,-531.31 291.84,-546.95 272.44,-607.75 287.25,-621.31 323.65,-654.61 359.3,-651.58 398.25,-621.31 416.72,-606.96 395.45,-587.56 411.25,-570.31 411.53,-570 411.82,-569.7 412.12,-569.4"/>
<polygon fill="#000000" fill-opacity="0.200000" stroke="#000000" stroke-width="2" stroke-opacity="0.200000" points="413.26,-571.17 416.7,-565.83 410.67,-567.86 413.26,-571.17"/>
</g>
<!-- packages/web/src/pages/EmbedPage.tsx&#45;&gt;packages/web/src/components/Header.tsx -->
<g id="edge62" class="edge">
<title>packages/web/src/pages/EmbedPage.tsx&#45;&gt;packages/web/src/components/Header.tsx</title>
<path fill="none" stroke="#000000" stroke-width="2" stroke-opacity="0.200000" d="M267.99,-522.47C272.29,-524.68 276.2,-527.57 279.25,-531.31 290.53,-545.16 274,-599.32 287.25,-611.31 305.54,-627.86 379.32,-627.13 398.25,-611.31 423.2,-590.46 390.15,-564.05 411.25,-539.31 413.7,-536.43 416.7,-534.08 419.98,-532.14"/>
<polygon fill="#000000" fill-opacity="0.200000" stroke="#000000" stroke-width="2" stroke-opacity="0.200000" points="420.74,-534.1 425.27,-529.64 418.95,-530.3 420.74,-534.1"/>
</g>
<!-- packages/web/src/pages/InvitePage.tsx&#45;&gt;node_modules/.pnpm -->
<g id="edge66" class="edge">
<title>packages/web/src/pages/InvitePage.tsx&#45;&gt;node_modules/.pnpm</title>
<path fill="none" stroke="#000000" stroke-opacity="0.200000" d="M228.12,-474.71C227.57,-418.72 227.76,-134.88 287.25,-78.31 342.12,-26.13 381.15,-62.31 456.88,-62.31 456.88,-62.31 456.88,-62.31 573.75,-62.31 642.23,-62.31 673.35,-35.75 727,-78.31 769.63,-112.13 778.1,-182.3 779.69,-214.49"/>
<polygon fill="#000000" fill-opacity="0.200000" stroke="#000000" stroke-opacity="0.200000" points="777.58,-214.39 779.9,-220.31 781.78,-214.23 777.58,-214.39"/>
</g>
<!-- packages/web/src/pages/InvitePage.tsx&#45;&gt;packages/web/src/components/Footer.tsx -->
<g id="edge64" class="edge">
<title>packages/web/src/pages/InvitePage.tsx&#45;&gt;packages/web/src/components/Footer.tsx</title>
<path fill="none" stroke="#000000" stroke-width="2" stroke-opacity="0.200000" d="M264.1,-480.1C269.68,-478.13 274.99,-475.32 279.25,-471.31 287.74,-463.31 278.83,-454.38 287.25,-446.31 293.51,-440.31 301.8,-436.51 310.17,-434.12"/>
<polygon fill="#000000" fill-opacity="0.200000" stroke="#000000" stroke-width="2" stroke-opacity="0.200000" points="310.51,-436.2 315.88,-432.8 309.56,-432.11 310.51,-436.2"/>
</g>
<!-- packages/web/src/pages/InvitePage.tsx&#45;&gt;packages/web/src/components/Header.tsx -->
<g id="edge65" class="edge">
<title>packages/web/src/pages/InvitePage.tsx&#45;&gt;packages/web/src/components/Header.tsx</title>
<path fill="none" stroke="#000000" stroke-width="2" stroke-opacity="0.200000" d="M264,-489.54C269.87,-491.93 275.32,-495.38 279.25,-500.31 293.15,-517.74 270.87,-585.19 287.25,-600.31 296.31,-608.67 388.66,-608.07 398.25,-600.31 419.8,-582.87 392.94,-560.12 411.25,-539.31 413.62,-536.62 416.46,-534.38 419.56,-532.52"/>
<polygon fill="#000000" fill-opacity="0.200000" stroke="#000000" stroke-width="2" stroke-opacity="0.200000" points="420.43,-534.44 424.92,-529.94 418.6,-530.65 420.43,-534.44"/>
</g>
<!-- packages/web/src/pages/TracePage.tsx&#45;&gt;node_modules/.pnpm -->
<g id="edge69" class="edge">
<title>packages/web/src/pages/TracePage.tsx&#45;&gt;node_modules/.pnpm</title>
<path fill="none" stroke="#000000" stroke-opacity="0.200000" d="M264.96,-602.9C270.52,-600.51 275.6,-597.11 279.25,-592.31 295.66,-570.71 278.35,-373.93 287.25,-348.31 323.53,-243.86 346.3,-166.31 456.88,-166.31 456.88,-166.31 456.88,-166.31 573.75,-166.31 642.69,-166.31 663.69,-163.02 727,-190.31 741.47,-196.54 755.46,-207.65 765.43,-216.74"/>
<polygon fill="#000000" fill-opacity="0.200000" stroke="#000000" stroke-opacity="0.200000" points="763.9,-218.18 769.71,-220.76 766.78,-215.12 763.9,-218.18"/>
</g>
<!-- packages/web/src/pages/TracePage.tsx&#45;&gt;packages/contracts/src/web/index.ts -->
<g id="edge68" class="edge">
<title>packages/web/src/pages/TracePage.tsx&#45;&gt;packages/contracts/src/web/index.ts</title>
<path fill="none" stroke="#000000" stroke-opacity="0.200000" d="M228.85,-617.76C231.13,-645.06 241.56,-724.67 287.25,-765.31 345.28,-816.93 379.21,-807.31 456.88,-807.31 456.88,-807.31 456.88,-807.31 573.75,-807.31 641.91,-807.31 663.89,-827.07 727,-801.31 743.83,-794.44 758.75,-779.72 768.44,-768.38"/>
<polygon fill="none" stroke="#000000" stroke-opacity="0.200000" points="769.86,-769.95 772.05,-763.98 766.62,-767.29 769.86,-769.95"/>
</g>
<!-- packages/web/src/utils/api.ts -->
<g id="node22" class="node">
<title>packages/web/src/utils/api.ts</title>
<g id="a_node22"><a xlink:href="packages/web/src/utils/api.ts" xlink:title="api.ts">
<path fill="#ddfeff" stroke="black" d="M696.83,-740.56C696.83,-740.56 655.17,-740.56 655.17,-740.56 652.08,-740.56 649,-737.48 649,-734.39 649,-734.39 649,-728.23 649,-728.23 649,-725.14 652.08,-722.06 655.17,-722.06 655.17,-722.06 696.83,-722.06 696.83,-722.06 699.92,-722.06 703,-725.14 703,-728.23 703,-728.23 703,-734.39 703,-734.39 703,-737.48 699.92,-740.56 696.83,-740.56"/>
<text xml:space="preserve" text-anchor="start" x="665.12" y="-728.01" font-family="Helvetica,sans-Serif" font-size="9.00">api.ts</text>
</a>
</g>
</g>
<!-- packages/web/src/pages/TracePage.tsx&#45;&gt;packages/web/src/utils/api.ts -->
<g id="edge67" class="edge">
<title>packages/web/src/pages/TracePage.tsx&#45;&gt;packages/web/src/utils/api.ts</title>
<path fill="none" stroke="#000000" stroke-width="2" stroke-opacity="0.200000" d="M229.65,-618.04C233.72,-642.63 247.87,-707.68 287.25,-741.31 346,-791.47 562.32,-808.48 633,-777.31 646.4,-771.4 657.38,-758.86 664.75,-748.37"/>
<polygon fill="#000000" fill-opacity="0.200000" stroke="#000000" stroke-width="2" stroke-opacity="0.200000" points="666.46,-749.58 668,-743.41 662.95,-747.28 666.46,-749.58"/>
</g>
<!-- packages/web/src/components/OpenPhilosophy.tsx -->
<g id="node19" class="node">
<title>packages/web/src/components/OpenPhilosophy.tsx</title>
<g id="a_node19"><a xlink:href="packages/web/src/components/OpenPhilosophy.tsx" xlink:title="no&#45;orphans">
<path fill="#ccffcc" stroke="orange" d="M367.58,-532.56C367.58,-532.56 325.92,-532.56 325.92,-532.56 322.83,-532.56 319.75,-529.48 319.75,-526.39 319.75,-526.39 319.75,-520.23 319.75,-520.23 319.75,-517.14 322.83,-514.06 325.92,-514.06 325.92,-514.06 367.58,-514.06 367.58,-514.06 370.67,-514.06 373.75,-517.14 373.75,-520.23 373.75,-520.23 373.75,-526.39 373.75,-526.39 373.75,-529.48 370.67,-532.56 367.58,-532.56"/>
<text xml:space="preserve" text-anchor="start" x="329.12" y="-520.01" font-family="Helvetica,sans-Serif" font-size="9.00" fill="orange">OpenPhilosophy.tsx</text>
</a>
</g>
</g>
<!-- packages/web/src/components/AskMeAnything.tsx&#45;&gt;node_modules/.pnpm -->
<g id="edge24" class="edge">
<title>packages/web/src/components/AskMeAnything.tsx&#45;&gt;node_modules/.pnpm</title>
<path fill="none" stroke="#000000" stroke-opacity="0.200000" d="M498.08,-544.56C500.52,-542.81 502.71,-540.74 504.5,-538.31 519.39,-518.07 496.28,-331.5 512.5,-312.31 543.92,-275.15 682.29,-287.52 727,-268.31 740.15,-262.66 753.35,-253.45 763.29,-245.64"/>
<polygon fill="#000000" fill-opacity="0.200000" stroke="#000000" stroke-opacity="0.200000" points="764.5,-247.36 767.85,-241.95 761.86,-244.09 764.5,-247.36"/>
</g>
<!-- packages/web/src/components/AskMeAnything.tsx&#45;&gt;packages/contracts/src/ethics&#45;core/index.ts -->
<g id="edge23" class="edge">
<title>packages/web/src/components/AskMeAnything.tsx&#45;&gt;packages/contracts/src/ethics&#45;core/index.ts</title>
<path fill="none" stroke="#000000" stroke-opacity="0.200000" d="M498.08,-564.05C500.52,-565.81 502.71,-567.87 504.5,-570.31 519.71,-591 495.15,-782.37 512.5,-801.31 537.07,-828.14 638.62,-821.31 675,-821.31 675,-821.31 675,-821.31 938.62,-821.31 988.27,-821.31 1003.06,-816.35 1046.5,-792.31 1057.68,-786.12 1068.21,-776.33 1075.93,-768.11"/>
<polygon fill="none" stroke="#000000" stroke-opacity="0.200000" points="1077.31,-769.71 1079.78,-763.85 1074.2,-766.89 1077.31,-769.71"/>
</g>
<!-- packages/web/src/data/examplePrompts.json -->
<g id="node21" class="node">
<title>packages/web/src/data/examplePrompts.json</title>
<g id="a_node21"><a xlink:href="packages/web/src/data/examplePrompts.json" xlink:title="examplePrompts.json">
<path fill="#ffee44" stroke="black" d="M618.83,-655.56C618.83,-655.56 526.67,-655.56 526.67,-655.56 523.58,-655.56 520.5,-652.48 520.5,-649.39 520.5,-649.39 520.5,-643.23 520.5,-643.23 520.5,-640.14 523.58,-637.06 526.67,-637.06 526.67,-637.06 618.83,-637.06 618.83,-637.06 621.92,-637.06 625,-640.14 625,-643.23 625,-643.23 625,-649.39 625,-649.39 625,-652.48 621.92,-655.56 618.83,-655.56"/>
<text xml:space="preserve" text-anchor="start" x="528.5" y="-643.01" font-family="Helvetica,sans-Serif" font-size="9.00">examplePrompts.json</text>
</a>
</g>
</g>
<!-- packages/web/src/components/AskMeAnything.tsx&#45;&gt;packages/web/src/data/examplePrompts.json -->
<g id="edge19" class="edge">
<title>packages/web/src/components/AskMeAnything.tsx&#45;&gt;packages/web/src/data/examplePrompts.json</title>
<path fill="none" stroke="#000000" stroke-width="2" stroke-opacity="0.200000" d="M497.36,-564.01C500.04,-565.77 502.47,-567.85 504.5,-570.31 519.95,-589.02 497.22,-605.46 512.5,-624.31 514.91,-627.28 517.76,-629.85 520.89,-632.08"/>
<polygon fill="#000000" fill-opacity="0.200000" stroke="#000000" stroke-width="2" stroke-opacity="0.200000" points="519.79,-633.86 526.02,-635.12 521.93,-630.25 519.79,-633.86"/>
</g>
<!-- packages/web/src/components/AskMeAnything.tsx&#45;&gt;packages/web/src/utils/api.ts -->
<g id="edge20" class="edge">
<title>packages/web/src/components/AskMeAnything.tsx&#45;&gt;packages/web/src/utils/api.ts</title>
<path fill="none" stroke="#000000" stroke-width="2" stroke-opacity="0.200000" d="M488.05,-563.92C493.56,-565.91 499.24,-568.08 504.5,-570.31 508.16,-571.86 508.71,-573.11 512.5,-574.31 538.32,-582.46 614.64,-572.41 633,-592.31 650.68,-611.46 627.77,-686.85 641,-709.31 642.5,-711.85 644.42,-714.15 646.59,-716.22"/>
<polygon fill="#000000" fill-opacity="0.200000" stroke="#000000" stroke-width="2" stroke-opacity="0.200000" points="645.24,-717.84 651.26,-719.88 647.83,-714.53 645.24,-717.84"/>
</g>
<!-- packages/web/src/utils/runtimeConfig.ts -->
<g id="node23" class="node">
<title>packages/web/src/utils/runtimeConfig.ts</title>
<g id="a_node23"><a xlink:href="packages/web/src/utils/runtimeConfig.ts" xlink:title="runtimeConfig.ts">
<path fill="#ddfeff" stroke="black" d="M607.96,-740.56C607.96,-740.56 537.54,-740.56 537.54,-740.56 534.46,-740.56 531.38,-737.48 531.38,-734.39 531.38,-734.39 531.38,-728.23 531.38,-728.23 531.38,-725.14 534.46,-722.06 537.54,-722.06 537.54,-722.06 607.96,-722.06 607.96,-722.06 611.04,-722.06 614.12,-725.14 614.12,-728.23 614.12,-728.23 614.12,-734.39 614.12,-734.39 614.12,-737.48 611.04,-740.56 607.96,-740.56"/>
<text xml:space="preserve" text-anchor="start" x="539.38" y="-728.01" font-family="Helvetica,sans-Serif" font-size="9.00">runtimeConfig.ts</text>
</a>
</g>
</g>
<!-- packages/web/src/components/AskMeAnything.tsx&#45;&gt;packages/web/src/utils/runtimeConfig.ts -->
<g id="edge21" class="edge">
<title>packages/web/src/components/AskMeAnything.tsx&#45;&gt;packages/web/src/utils/runtimeConfig.ts</title>
<path fill="none" stroke="#000000" stroke-width="2" stroke-opacity="0.200000" d="M497.57,-563.84C500.2,-565.64 502.57,-567.77 504.5,-570.31 520.03,-590.68 500.44,-662.71 512.5,-685.31 519.59,-698.6 532.37,-709.27 544.25,-716.98"/>
<polygon fill="#000000" fill-opacity="0.200000" stroke="#000000" stroke-width="2" stroke-opacity="0.200000" points="543.05,-718.71 549.27,-720.03 545.24,-715.12 543.05,-718.71"/>
</g>
<!-- packages/web/src/components/ProvenanceFooter.tsx -->
<g id="node24" class="node">
<title>packages/web/src/components/ProvenanceFooter.tsx</title>
<g id="a_node24"><a xlink:href="packages/web/src/components/ProvenanceFooter.tsx" xlink:title="ProvenanceFooter.tsx">
<path fill="#bbfeff" stroke="black" d="M618.83,-568.56C618.83,-568.56 526.67,-568.56 526.67,-568.56 523.58,-568.56 520.5,-565.48 520.5,-562.39 520.5,-562.39 520.5,-556.23 520.5,-556.23 520.5,-553.14 523.58,-550.06 526.67,-550.06 526.67,-550.06 618.83,-550.06 618.83,-550.06 621.92,-550.06 625,-553.14 625,-556.23 625,-556.23 625,-562.39 625,-562.39 625,-565.48 621.92,-568.56 618.83,-568.56"/>
<text xml:space="preserve" text-anchor="start" x="528.5" y="-556.01" font-family="Helvetica,sans-Serif" font-size="9.00">ProvenanceFooter.tsx</text>
</a>
</g>
</g>
<!-- packages/web/src/components/AskMeAnything.tsx&#45;&gt;packages/web/src/components/ProvenanceFooter.tsx -->
<g id="edge22" class="edge">
<title>packages/web/src/components/AskMeAnything.tsx&#45;&gt;packages/web/src/components/ProvenanceFooter.tsx</title>
<path fill="none" stroke="#000000" stroke-width="2" stroke-opacity="0.200000" d="M504.79,-556.34C507.03,-556.44 509.29,-556.54 511.57,-556.64"/>
<polygon fill="#000000" fill-opacity="0.200000" stroke="#000000" stroke-width="2" stroke-opacity="0.200000" points="511.24,-558.73 517.33,-556.9 511.42,-554.53 511.24,-558.73"/>
</g>
<!-- packages/web/src/utils/api.ts&#45;&gt;packages/contracts/src/web/client&#45;core.ts -->
<g id="edge73" class="edge">
<title>packages/web/src/utils/api.ts&#45;&gt;packages/contracts/src/web/client&#45;core.ts</title>
<path fill="none" stroke="#000000" stroke-width="2" stroke-opacity="0.200000" d="M703.19,-727.27C743.69,-721.74 823.83,-713.65 890.75,-724.31 894.88,-724.97 899.14,-725.94 903.32,-727.07"/>
<polygon fill="#000000" fill-opacity="0.200000" stroke="#000000" stroke-width="2" stroke-opacity="0.200000" points="902.49,-729.02 908.84,-728.73 903.69,-724.99 902.49,-729.02"/>
</g>
<!-- packages/web/src/utils/api.ts&#45;&gt;packages/contracts/src/web/index.ts -->
<g id="edge72" class="edge">
<title>packages/web/src/utils/api.ts&#45;&gt;packages/contracts/src/web/index.ts</title>
<path fill="none" stroke="#000000" stroke-opacity="0.200000" d="M703.26,-736.92C716.45,-739.74 732.59,-743.18 746.65,-746.19"/>
<polygon fill="none" stroke="#000000" stroke-opacity="0.200000" points="746,-748.19 752.31,-747.39 746.88,-744.09 746,-748.19"/>
</g>
<!-- packages/web/src/utils/api.ts&#45;&gt;packages/contracts/src/web/schemas.ts -->
<g id="edge74" class="edge">
<title>packages/web/src/utils/api.ts&#45;&gt;packages/contracts/src/web/schemas.ts</title>
<path fill="none" stroke="#000000" stroke-width="2" stroke-opacity="0.200000" d="M703.45,-732.47C734.14,-733.82 785.04,-736.06 820.19,-737.61"/>
<polygon fill="#000000" fill-opacity="0.200000" stroke="#000000" stroke-width="2" stroke-opacity="0.200000" points="819.65,-739.69 825.74,-737.85 819.83,-735.49 819.65,-739.69"/>
</g>
<!-- packages/web/src/utils/runtimeConfig.ts&#45;&gt;packages/contracts/src/web/index.ts -->
<g id="edge78" class="edge">
<title>packages/web/src/utils/runtimeConfig.ts&#45;&gt;packages/contracts/src/web/index.ts</title>
<path fill="none" stroke="#000000" stroke-opacity="0.200000" d="M611.96,-741C621.39,-743.07 631.52,-745.02 641,-746.31 676.83,-751.17 718.26,-752.74 746.5,-753.21"/>
<polygon fill="none" stroke="#000000" stroke-opacity="0.200000" points="746.21,-755.3 752.23,-753.28 746.26,-751.1 746.21,-755.3"/>
</g>
<!-- packages/web/src/utils/runtimeConfig.ts&#45;&gt;packages/web/src/utils/api.ts -->
<g id="edge77" class="edge">
<title>packages/web/src/utils/runtimeConfig.ts&#45;&gt;packages/web/src/utils/api.ts</title>
<path fill="none" stroke="#000000" stroke-width="2" stroke-opacity="0.200000" d="M614.35,-731.31C622.74,-731.31 631.52,-731.31 639.71,-731.31"/>
<polygon fill="#000000" fill-opacity="0.200000" stroke="#000000" stroke-width="2" stroke-opacity="0.200000" points="639.62,-733.41 645.62,-731.31 639.62,-729.21 639.62,-733.41"/>
</g>
<!-- packages/web/src/components/ProvenanceFooter.tsx&#45;&gt;node_modules/.pnpm -->
<g id="edge42" class="edge">
<title>packages/web/src/components/ProvenanceFooter.tsx&#45;&gt;node_modules/.pnpm</title>
<path fill="none" stroke="#000000" stroke-opacity="0.200000" d="M625.44,-549.61C628.22,-547.83 630.77,-545.75 633,-543.31 646.99,-527.98 630.19,-515.02 641,-497.31 665.96,-456.41 700.32,-472.1 727,-432.31 766.8,-372.95 776.74,-285.16 779.2,-248.43"/>
<polygon fill="none" stroke="#000000" stroke-opacity="0.200000" points="781.29,-248.64 779.55,-242.52 777.1,-248.39 781.29,-248.64"/>
</g>
<!-- packages/web/src/components/ProvenanceFooter.tsx&#45;&gt;packages/contracts/src/ethics&#45;core/index.ts -->
<g id="edge41" class="edge">
<title>packages/web/src/components/ProvenanceFooter.tsx&#45;&gt;packages/contracts/src/ethics&#45;core/index.ts</title>
<path fill="none" stroke="#000000" stroke-opacity="0.200000" d="M625.06,-549.67C627.96,-547.88 630.65,-545.78 633,-543.31 644.59,-531.11 628.1,-517.11 641,-506.31 688.4,-466.63 718.18,-501.31 780,-501.31 780,-501.31 780,-501.31 938.62,-501.31 1048.27,-501.31 1079.51,-679.73 1086.66,-736.31"/>
<polygon fill="none" stroke="#000000" stroke-opacity="0.200000" points="1084.57,-736.53 1087.37,-742.23 1088.74,-736.03 1084.57,-736.53"/>
</g>
<!-- packages/web/src/components/BlogPostCard.tsx&#45;&gt;node_modules/.pnpm -->
<g id="edge26" class="edge">
<title>packages/web/src/components/BlogPostCard.tsx&#45;&gt;node_modules/.pnpm</title>
<path fill="none" stroke="#000000" stroke-opacity="0.200000" d="M390.12,-452.57C393.21,-450.61 396,-448.22 398.25,-445.31 414.41,-424.46 392.1,-226.44 411.25,-208.31 462.21,-160.07 658.3,-194.04 727,-208.31 737.02,-210.39 747.47,-214.46 756.41,-218.61"/>
<polygon fill="#000000" fill-opacity="0.200000" stroke="#000000" stroke-opacity="0.200000" points="755.25,-220.38 761.57,-221.11 757.08,-216.6 755.25,-220.38"/>
</g>
<!-- packages/web/src/components/BlogPostCard.tsx&#45;&gt;packages/web/src/types/blog.ts -->
<g id="edge25" class="edge">
<title>packages/web/src/components/BlogPostCard.tsx&#45;&gt;packages/web/src/types/blog.ts</title>
<path fill="none" stroke="#000000" stroke-opacity="0.200000" d="M390.33,-459.69C465.68,-457.28 616.2,-454.64 633,-471.31 647.69,-485.88 628.91,-640.52 641,-657.31 641.62,-658.17 642.31,-658.98 643.06,-659.74"/>
<polygon fill="none" stroke="#000000" stroke-opacity="0.200000" points="641.37,-661.1 647.42,-663.06 643.92,-657.75 641.37,-661.1"/>
</g>
<!-- packages/web/src/types/blog.ts&#45;&gt;packages/contracts/src/web/index.ts -->
<g id="edge71" class="edge">
<title>packages/web/src/types/blog.ts&#45;&gt;packages/contracts/src/web/index.ts</title>
<path fill="none" stroke="#000000" stroke-opacity="0.200000" d="M688.82,-679.83C706.8,-694.32 741.18,-722.02 762.2,-738.96"/>
<polygon fill="none" stroke="#000000" stroke-opacity="0.200000" points="760.84,-740.56 766.83,-742.69 763.47,-737.29 760.84,-740.56"/>
</g>
<!-- packages/web/src/components/BlogProvenance.tsx&#45;&gt;node_modules/.pnpm -->
<g id="edge28" class="edge">
<title>packages/web/src/components/BlogProvenance.tsx&#45;&gt;node_modules/.pnpm</title>
<path fill="none" stroke="#000000" stroke-opacity="0.200000" d="M391.5,-482.66C394.04,-480.88 396.34,-478.78 398.25,-476.31 414.73,-455.02 391.78,-252.91 411.25,-234.31 458.49,-189.18 664.77,-214.1 746.49,-226.06"/>
<polygon fill="none" stroke="#000000" stroke-opacity="0.200000" points="745.8,-228.08 752.04,-226.89 746.42,-223.93 745.8,-228.08"/>
</g>
<!-- packages/web/src/components/BlogProvenance.tsx&#45;&gt;packages/web/src/types/blog.ts -->
<g id="edge27" class="edge">
<title>packages/web/src/components/BlogProvenance.tsx&#45;&gt;packages/web/src/types/blog.ts</title>
<path fill="none" stroke="#000000" stroke-opacity="0.200000" d="M396.02,-486.94C472.92,-478.92 616.32,-466.37 633,-482.31 647.07,-495.75 629.6,-641.53 641,-657.31 641.62,-658.17 642.31,-658.98 643.06,-659.73"/>
<polygon fill="none" stroke="#000000" stroke-opacity="0.200000" points="641.38,-661.09 647.43,-663.05 643.92,-657.75 641.38,-661.09"/>
</g>
<!-- packages/web/src/components/Breadcrumb.tsx -->
<g id="node28" class="node">
<title>packages/web/src/components/Breadcrumb.tsx</title>
<g id="a_node28"><a xlink:href="packages/web/src/components/Breadcrumb.tsx" xlink:title="Breadcrumb.tsx">
<path fill="#bbfeff" stroke="black" d="M606.46,-506.56C606.46,-506.56 539.04,-506.56 539.04,-506.56 535.96,-506.56 532.88,-503.48 532.88,-500.39 532.88,-500.39 532.88,-494.23 532.88,-494.23 532.88,-491.14 535.96,-488.06 539.04,-488.06 539.04,-488.06 606.46,-488.06 606.46,-488.06 609.54,-488.06 612.62,-491.14 612.62,-494.23 612.62,-494.23 612.62,-500.39 612.62,-500.39 612.62,-503.48 609.54,-506.56 606.46,-506.56"/>
<text xml:space="preserve" text-anchor="start" x="540.88" y="-494.01" font-family="Helvetica,sans-Serif" font-size="9.00">Breadcrumb.tsx</text>
</a>
</g>
</g>
<!-- packages/web/src/components/Breadcrumb.tsx&#45;&gt;node_modules/.pnpm -->
<g id="edge29" class="edge">
<title>packages/web/src/components/Breadcrumb.tsx&#45;&gt;node_modules/.pnpm</title>
<path fill="none" stroke="#000000" stroke-opacity="0.200000" d="M580.8,-487.63C592.61,-471.62 617.44,-438.85 641,-413.31 676.61,-374.72 695.25,-374.13 727,-332.31 747.69,-305.06 764.59,-268.58 773.4,-247.75"/>
<polygon fill="#000000" fill-opacity="0.200000" stroke="#000000" stroke-opacity="0.200000" points="775.33,-248.57 775.69,-242.23 771.45,-246.96 775.33,-248.57"/>
</g>
<!-- packages/web/src/components/Header.tsx&#45;&gt;node_modules/.pnpm -->
<g id="edge32" class="edge">
<title>packages/web/src/components/Header.tsx&#45;&gt;node_modules/.pnpm</title>
<path fill="none" stroke="#000000" stroke-opacity="0.200000" d="M459.65,-513.56C463.06,-473 478.18,-318.17 512.5,-286.31 583.15,-220.73 634.33,-280.83 727,-254.31 736.28,-251.65 746.08,-247.74 754.69,-243.89"/>
<polygon fill="#000000" fill-opacity="0.200000" stroke="#000000" stroke-opacity="0.200000" points="755.36,-245.9 759.93,-241.48 753.6,-242.08 755.36,-245.9"/>
</g>
<!-- packages/web/src/components/Header.tsx&#45;&gt;packages/web/src/components/Breadcrumb.tsx -->
<g id="edge30" class="edge">
<title>packages/web/src/components/Header.tsx&#45;&gt;packages/web/src/components/Breadcrumb.tsx</title>
<path fill="none" stroke="#000000" stroke-width="2" stroke-opacity="0.200000" d="M487.94,-516.61C498.88,-514.09 511.62,-511.16 523.82,-508.35"/>
<polygon fill="#000000" fill-opacity="0.200000" stroke="#000000" stroke-width="2" stroke-opacity="0.200000" points="524.24,-510.41 529.62,-507.01 523.3,-506.31 524.24,-510.41"/>
</g>
<!-- packages/web/src/components/ThemeToggle.tsx -->
<g id="node30" class="node">
<title>packages/web/src/components/ThemeToggle.tsx</title>
<g id="a_node30"><a xlink:href="packages/web/src/components/ThemeToggle.tsx" xlink:title="ThemeToggle.tsx">
<path fill="#bbfeff" stroke="black" d="M609.46,-537.56C609.46,-537.56 536.04,-537.56 536.04,-537.56 532.96,-537.56 529.88,-534.48 529.88,-531.39 529.88,-531.39 529.88,-525.23 529.88,-525.23 529.88,-522.14 532.96,-519.06 536.04,-519.06 536.04,-519.06 609.46,-519.06 609.46,-519.06 612.54,-519.06 615.62,-522.14 615.62,-525.23 615.62,-525.23 615.62,-531.39 615.62,-531.39 615.62,-534.48 612.54,-537.56 609.46,-537.56"/>
<text xml:space="preserve" text-anchor="start" x="537.88" y="-525.01" font-family="Helvetica,sans-Serif" font-size="9.00">ThemeToggle.tsx</text>
</a>
</g>
</g>
<!-- packages/web/src/components/Header.tsx&#45;&gt;packages/web/src/components/ThemeToggle.tsx -->
<g id="edge31" class="edge">
<title>packages/web/src/components/Header.tsx&#45;&gt;packages/web/src/components/ThemeToggle.tsx</title>
<path fill="none" stroke="#000000" stroke-width="2" stroke-opacity="0.200000" d="M487.94,-524.6C497.94,-525.04 509.45,-525.55 520.68,-526.05"/>
<polygon fill="#000000" fill-opacity="0.200000" stroke="#000000" stroke-width="2" stroke-opacity="0.200000" points="520.48,-528.14 526.56,-526.31 520.66,-523.94 520.48,-528.14"/>
</g>
<!-- packages/web/src/components/ThemeToggle.tsx&#45;&gt;node_modules/.pnpm -->
<g id="edge46" class="edge">
<title>packages/web/src/components/ThemeToggle.tsx&#45;&gt;node_modules/.pnpm</title>
<path fill="none" stroke="#000000" stroke-opacity="0.200000" d="M616.07,-523.38C622.48,-520.93 628.45,-517.39 633,-512.31 648.59,-494.88 629.86,-480.87 641,-460.31 665.44,-415.2 698.54,-426 727,-383.31 756.32,-339.34 771.24,-277.39 777.04,-248.02"/>
<polygon fill="#000000" fill-opacity="0.200000" stroke="#000000" stroke-opacity="0.200000" points="779.04,-248.73 778.1,-242.44 774.91,-247.95 779.04,-248.73"/>
</g>
<!-- packages/web/src/components/ThemeToggle.tsx&#45;&gt;packages/web/src/theme.tsx -->
<g id="edge45" class="edge">
<title>packages/web/src/components/ThemeToggle.tsx&#45;&gt;packages/web/src/theme.tsx</title>
<path fill="none" stroke="#000000" stroke-width="2" stroke-opacity="0.200000" d="M616.1,-526.22C623.89,-525.83 631.95,-525.43 639.51,-525.06"/>
<polygon fill="#000000" fill-opacity="0.200000" stroke="#000000" stroke-width="2" stroke-opacity="0.200000" points="639.2,-527.18 645.09,-524.79 639,-522.98 639.2,-527.18"/>
</g>
<!-- packages/web/src/components/AskPanel.tsx -->
<g id="node31" class="node">
<title>packages/web/src/components/AskPanel.tsx</title>
<g id="a_node31"><a xlink:href="packages/web/src/components/AskPanel.tsx" xlink:title="AskPanel.tsx">
<path fill="#bbfeff" stroke="black" d="M487.46,-594.56C487.46,-594.56 428.29,-594.56 428.29,-594.56 425.21,-594.56 422.12,-591.48 422.12,-588.39 422.12,-588.39 422.12,-582.23 422.12,-582.23 422.12,-579.14 425.21,-576.06 428.29,-576.06 428.29,-576.06 487.46,-576.06 487.46,-576.06 490.54,-576.06 493.62,-579.14 493.62,-582.23 493.62,-582.23 493.62,-588.39 493.62,-588.39 493.62,-591.48 490.54,-594.56 487.46,-594.56"/>
<text xml:space="preserve" text-anchor="start" x="430.12" y="-582.01" font-family="Helvetica,sans-Serif" font-size="9.00">AskPanel.tsx</text>
</a>
</g>
</g>
<!-- packages/web/src/components/AskPanel.tsx&#45;&gt;node_modules/.pnpm -->
<g id="edge40" class="edge">
<title>packages/web/src/components/AskPanel.tsx&#45;&gt;node_modules/.pnpm</title>
<path fill="none" stroke="#000000" stroke-opacity="0.200000" d="M494.06,-577.82C498.07,-575.66 501.71,-572.88 504.5,-569.31 516.44,-554 504.91,-500.18 512.5,-482.31 546.69,-401.82 573.23,-388.57 641,-333.31 674.92,-305.65 692.2,-311.87 727,-285.31 742.12,-273.77 757.09,-258.01 767.24,-246.5"/>
<polygon fill="#000000" fill-opacity="0.200000" stroke="#000000" stroke-opacity="0.200000" points="768.75,-247.96 771.09,-242.05 765.58,-245.21 768.75,-247.96"/>
</g>
<!-- packages/web/src/components/AskPanel.tsx&#45;&gt;packages/contracts/src/ethics&#45;core/index.ts -->
<g id="edge39" class="edge">
<title>packages/web/src/components/AskPanel.tsx&#45;&gt;packages/contracts/src/ethics&#45;core/index.ts</title>
<path fill="none" stroke="#000000" stroke-opacity="0.200000" d="M459.53,-594.98C462.53,-635.94 476.36,-794.48 512.5,-825.31 567.55,-872.27 602.64,-835.31 675,-835.31 675,-835.31 675,-835.31 938.62,-835.31 986.78,-835.31 1005.9,-851.19 1046.5,-825.31 1066.29,-812.69 1077.86,-787.17 1083.68,-770.15"/>
<polygon fill="none" stroke="#000000" stroke-opacity="0.200000" points="1085.68,-770.81 1085.5,-764.45 1081.68,-769.53 1085.68,-770.81"/>
</g>
<!-- packages/web/src/components/AskPanel.tsx&#45;&gt;packages/web/src/data/examplePrompts.json -->
<g id="edge35" class="edge">
<title>packages/web/src/components/AskPanel.tsx&#45;&gt;packages/web/src/data/examplePrompts.json</title>
<path fill="none" stroke="#000000" stroke-width="2" stroke-opacity="0.200000" d="M470.19,-594.96C480.64,-603.52 496.88,-615.93 512.5,-624.31 518.89,-627.74 525.94,-630.86 532.87,-633.61"/>
<polygon fill="#000000" fill-opacity="0.200000" stroke="#000000" stroke-width="2" stroke-opacity="0.200000" points="531.73,-635.42 538.08,-635.59 533.22,-631.5 531.73,-635.42"/>
</g>
<!-- packages/web/src/components/AskPanel.tsx&#45;&gt;packages/web/src/utils/api.ts -->
<g id="edge36" class="edge">
<title>packages/web/src/components/AskPanel.tsx&#45;&gt;packages/web/src/utils/api.ts</title>
<path fill="none" stroke="#000000" stroke-width="2" stroke-opacity="0.200000" d="M493.77,-591.29C541.91,-599.88 623.83,-615.81 633,-626.31 645.19,-640.27 631.37,-693.48 641,-709.31 642.53,-711.83 644.48,-714.12 646.66,-716.18"/>
<polygon fill="#000000" fill-opacity="0.200000" stroke="#000000" stroke-width="2" stroke-opacity="0.200000" points="645.32,-717.8 651.35,-719.83 647.91,-714.49 645.32,-717.8"/>
</g>
<!-- packages/web/src/components/AskPanel.tsx&#45;&gt;packages/web/src/utils/runtimeConfig.ts -->
<g id="edge37" class="edge">
<title>packages/web/src/components/AskPanel.tsx&#45;&gt;packages/web/src/utils/runtimeConfig.ts</title>
<path fill="none" stroke="#000000" stroke-width="2" stroke-opacity="0.200000" d="M462.45,-594.93C469.76,-613.74 487.84,-656.11 512.5,-685.31 522.77,-697.47 536.74,-708.5 548.54,-716.71"/>
<polygon fill="#000000" fill-opacity="0.200000" stroke="#000000" stroke-width="2" stroke-opacity="0.200000" points="547.25,-718.38 553.4,-719.99 549.6,-714.9 547.25,-718.38"/>
</g>
<!-- packages/web/src/components/AskPanel.tsx&#45;&gt;packages/web/src/components/ProvenanceFooter.tsx -->
<g id="edge38" class="edge">
<title>packages/web/src/components/AskPanel.tsx&#45;&gt;packages/web/src/components/ProvenanceFooter.tsx</title>
<path fill="none" stroke="#000000" stroke-width="2" stroke-opacity="0.200000" d="M493.97,-577.22C502.5,-575.26 511.8,-573.12 520.9,-571.02"/>
<polygon fill="#000000" fill-opacity="0.200000" stroke="#000000" stroke-width="2" stroke-opacity="0.200000" points="521.21,-573.1 526.59,-569.71 520.27,-569.01 521.21,-573.1"/>
</g>
<!-- packages/web/src/theme.tsx&#45;&gt;node_modules/.pnpm -->
<g id="edge70" class="edge">
<title>packages/web/src/theme.tsx&#45;&gt;node_modules/.pnpm</title>
<path fill="none" stroke="#000000" stroke-opacity="0.200000" d="M692.98,-513.64C704.23,-505.99 718.71,-494.29 727,-480.31 773.06,-402.61 779.36,-290.27 780.02,-248.12"/>
<polygon fill="#000000" fill-opacity="0.200000" stroke="#000000" stroke-opacity="0.200000" points="782.12,-248.19 780.08,-242.17 777.92,-248.15 782.12,-248.19"/>
</g>
<!-- packages/web/src/main.tsx -->
<g id="node33" class="node">
<title>packages/web/src/main.tsx</title>
<g id="a_node33"><a xlink:href="packages/web/src/main.tsx" xlink:title="main.tsx">
<path fill="#bbfeff" stroke="black" d="M79.83,-406.56C79.83,-406.56 38.17,-406.56 38.17,-406.56 35.08,-406.56 32,-403.48 32,-400.39 32,-400.39 32,-394.23 32,-394.23 32,-391.14 35.08,-388.06 38.17,-388.06 38.17,-388.06 79.83,-388.06 79.83,-388.06 82.92,-388.06 86,-391.14 86,-394.23 86,-394.23 86,-400.39 86,-400.39 86,-403.48 82.92,-406.56 79.83,-406.56"/>
<text xml:space="preserve" text-anchor="start" x="42.12" y="-394.01" font-family="Helvetica,sans-Serif" font-size="9.00">main.tsx</text>
</a>
</g>
</g>
<!-- packages/web/src/main.tsx&#45;&gt;node_modules/.pnpm -->
<g id="edge50" class="edge">
<title>packages/web/src/main.tsx&#45;&gt;node_modules/.pnpm</title>
<path fill="none" stroke="#000000" stroke-opacity="0.200000" d="M59.64,-387.74C57.9,-328.15 56.6,-10.31 226.25,-10.31 226.25,-10.31 226.25,-10.31 573.75,-10.31 642.14,-10.31 674.94,20.05 727,-24.31 756.3,-49.27 772.93,-169.81 778.17,-214.55"/>
<polygon fill="#000000" fill-opacity="0.200000" stroke="#000000" stroke-opacity="0.200000" points="776.05,-214.52 778.82,-220.25 780.23,-214.05 776.05,-214.52"/>
</g>
<!-- packages/web/src/main.tsx&#45;&gt;packages/web/src/App.tsx -->
<g id="edge47" class="edge">
<title>packages/web/src/main.tsx&#45;&gt;packages/web/src/App.tsx</title>
<path fill="none" stroke="#000000" stroke-width="2" stroke-opacity="0.200000" d="M74.43,-407.05C84.14,-413.6 97.11,-422.36 108.04,-429.74"/>
<polygon fill="#000000" fill-opacity="0.200000" stroke="#000000" stroke-width="2" stroke-opacity="0.200000" points="106.56,-431.27 112.71,-432.89 108.91,-427.79 106.56,-431.27"/>
</g>
<!-- packages/web/src/main.tsx&#45;&gt;packages/web/src/theme.tsx -->
<g id="edge48" class="edge">
<title>packages/web/src/main.tsx&#45;&gt;packages/web/src/theme.tsx</title>
<path fill="none" stroke="#000000" stroke-width="2" stroke-opacity="0.200000" d="M76.86,-387.73C106.23,-371.97 169.1,-342.31 226.25,-342.31 226.25,-342.31 226.25,-342.31 458.88,-342.31 536.31,-342.31 573.03,-299.33 633,-348.31 657.26,-368.12 669.28,-464.22 673.35,-504.98"/>
<polygon fill="#000000" fill-opacity="0.200000" stroke="#000000" stroke-width="2" stroke-opacity="0.200000" points="671.25,-505.07 673.91,-510.84 675.43,-504.67 671.25,-505.07"/>
</g>
<!-- packages/web/src/styles/global.css -->
<g id="node34" class="node">
<title>packages/web/src/styles/global.css</title>
<g id="a_node34"><a xlink:href="packages/web/src/styles/global.css" xlink:title="global.css">
<path fill="#ffffcc" stroke="black" d="M153.08,-487.56C153.08,-487.56 108.17,-487.56 108.17,-487.56 105.08,-487.56 102,-484.48 102,-481.39 102,-481.39 102,-475.23 102,-475.23 102,-472.14 105.08,-469.06 108.17,-469.06 108.17,-469.06 153.08,-469.06 153.08,-469.06 156.17,-469.06 159.25,-472.14 159.25,-475.23 159.25,-475.23 159.25,-481.39 159.25,-481.39 159.25,-484.48 156.17,-487.56 153.08,-487.56"/>
<text xml:space="preserve" text-anchor="start" x="110" y="-475.01" font-family="Helvetica,sans-Serif" font-size="9.00">global.css</text>
</a>
</g>
</g>
<!-- packages/web/src/main.tsx&#45;&gt;packages/web/src/styles/global.css -->
<g id="edge49" class="edge">
<title>packages/web/src/main.tsx&#45;&gt;packages/web/src/styles/global.css</title>
<path fill="none" stroke="#000000" stroke-width="2" stroke-opacity="0.200000" d="M62.26,-406.58C66.24,-421.08 75.88,-449.14 94,-465.31 94.14,-465.43 94.28,-465.56 94.43,-465.68"/>
<polygon fill="#000000" fill-opacity="0.200000" stroke="#000000" stroke-width="2" stroke-opacity="0.200000" points="92.93,-467.21 99.08,-468.8 95.27,-463.72 92.93,-467.21"/>
</g>
<!-- packages/web/src/utils/blog.ts&#45;&gt;packages/web/src/utils/api.ts -->
<g id="edge76" class="edge">
<title>packages/web/src/utils/blog.ts&#45;&gt;packages/web/src/utils/api.ts</title>
<path fill="none" stroke="#000000" stroke-width="2" stroke-opacity="0.200000" d="M600.13,-755.66C610.44,-752.94 622.32,-749.65 633,-746.31 635.42,-745.55 637.92,-744.74 640.42,-743.9"/>
<polygon fill="#000000" fill-opacity="0.200000" stroke="#000000" stroke-width="2" stroke-opacity="0.200000" points="641.04,-745.91 646.03,-741.98 639.67,-741.94 641.04,-745.91"/>
</g>
<!-- packages/web/src/utils/blog.ts&#45;&gt;packages/web/src/types/blog.ts -->
<g id="edge75" class="edge">
<title>packages/web/src/utils/blog.ts&#45;&gt;packages/web/src/types/blog.ts</title>
<path fill="none" stroke="#000000" stroke-opacity="0.200000" d="M600.14,-761.13C611.69,-759.27 624.51,-755.14 633,-746.31 644.06,-734.81 633.94,-725.62 641,-711.31 645.76,-701.66 653.22,-692.31 659.94,-684.99"/>
<polygon fill="none" stroke="#000000" stroke-opacity="0.200000" points="661.21,-686.7 663.83,-680.9 658.17,-683.8 661.21,-686.7"/>
</g>
</g>
</svg>
